<svg width="1920" height="952" viewBox="0 0 1920 952" fill="none" xmlns="http://www.w3.org/2000/svg">
<g clip-path="url(#clip0_225_43)">
<mask id="path-1-inside-1_225_43" fill="white">
<path fill-rule="evenodd" clip-rule="evenodd" d="M170.278 1107.45C154.428 1146.14 134.497 1194.79 99.4237 1246.32C99.4237 1246.32 -213.896 1018.27 -114.193 737.2C-98.6877 693.487 -89.5482 660.164 -85.1697 635.056L-134.077 635.056L-132.532 604.597L-178 604.597C-178 604.597 -154.589 583.339 -130.885 572.139L-111.13 182.714C-70.0914 364.523 -54.3841 302.557 -31.6147 212.731C-2.50749 97.9024 38.1403 -62.4542 157.999 182.714C234.405 137.772 279.332 155.721 313.061 169.196C359.455 187.732 384.663 197.803 441.463 24.0995C482.675 11.2864 526.17 35.746 570.4 60.6191C615.382 85.9151 661.124 111.639 705.999 99.0192C800.913 72.3283 858.502 115.021 908.732 152.258C971.172 198.547 1022.24 236.406 1119.5 122.084C1314.56 192.218 1329.29 140.733 1343.08 92.5324C1350.71 65.8599 1358.05 40.1929 1395.5 36.6958C1401.99 43.5762 1408.24 50.2117 1414.27 56.6138C1512.74 161.172 1552.6 203.506 1631.5 234.463C1682.82 254.6 1693.9 226.613 1716.01 170.753C1729.97 135.481 1748.33 89.0964 1784 36.6959C1784 36.6959 2102.69 294.72 2002.99 575.792C1994.83 598.778 1987.89 618.4 1982 635.056L1984.08 635.056C1984.08 635.056 1915.96 822.07 1982 635.056L1943.62 635.056L1999.92 1130.28C1956.61 938.39 1924.24 982.167 1880.73 1041.01C1830.33 1109.18 1764.96 1197.58 1650.3 963.044C1636.02 974.271 1623.47 982.274 1611.9 989.649C1559.76 1022.89 1527.61 1043.38 1447.33 1288.89C1364.21 1314.74 1258.32 1173.63 1194.42 1078.79C1100.55 939.457 1023.42 908.5 847.924 1114.79C593.654 928.714 589.157 1041.51 585.134 1142.39C583.065 1194.26 581.123 1242.98 545.424 1246.32C483.327 1252.12 425.239 1186.45 370.835 1124.95C333.131 1082.33 297.197 1041.71 262.924 1028.26C211.062 1007.91 196.075 1044.49 170.278 1107.45Z"/>
</mask>
<path fill-rule="evenodd" clip-rule="evenodd" d="M170.278 1107.45C154.428 1146.14 134.497 1194.79 99.4237 1246.32C99.4237 1246.32 -213.896 1018.27 -114.193 737.2C-98.6877 693.487 -89.5482 660.164 -85.1697 635.056L-134.077 635.056L-132.532 604.597L-178 604.597C-178 604.597 -154.589 583.339 -130.885 572.139L-111.13 182.714C-70.0914 364.523 -54.3841 302.557 -31.6147 212.731C-2.50749 97.9024 38.1403 -62.4542 157.999 182.714C234.405 137.772 279.332 155.721 313.061 169.196C359.455 187.732 384.663 197.803 441.463 24.0995C482.675 11.2864 526.17 35.746 570.4 60.6191C615.382 85.9151 661.124 111.639 705.999 99.0192C800.913 72.3283 858.502 115.021 908.732 152.258C971.172 198.547 1022.24 236.406 1119.5 122.084C1314.56 192.218 1329.29 140.733 1343.08 92.5324C1350.71 65.8599 1358.05 40.1929 1395.5 36.6958C1401.99 43.5762 1408.24 50.2117 1414.27 56.6138C1512.74 161.172 1552.6 203.506 1631.5 234.463C1682.82 254.6 1693.9 226.613 1716.01 170.753C1729.97 135.481 1748.33 89.0964 1784 36.6959C1784 36.6959 2102.69 294.72 2002.99 575.792C1994.83 598.778 1987.89 618.4 1982 635.056L1984.08 635.056C1984.08 635.056 1915.96 822.07 1982 635.056L1943.62 635.056L1999.92 1130.28C1956.61 938.39 1924.24 982.167 1880.73 1041.01C1830.33 1109.18 1764.96 1197.58 1650.3 963.044C1636.02 974.271 1623.47 982.274 1611.9 989.649C1559.76 1022.89 1527.61 1043.38 1447.33 1288.89C1364.21 1314.74 1258.32 1173.63 1194.42 1078.79C1100.55 939.457 1023.42 908.5 847.924 1114.79C593.654 928.714 589.157 1041.51 585.134 1142.39C583.065 1194.26 581.123 1242.98 545.424 1246.32C483.327 1252.12 425.239 1186.45 370.835 1124.95C333.131 1082.33 297.197 1041.71 262.924 1028.26C211.062 1007.91 196.075 1044.49 170.278 1107.45Z" fill="url(#paint0_linear_225_43)"/>
<path d="M99.4237 1246.32L111.824 1254.76L103.113 1267.55L90.5967 1258.45L99.4237 1246.32ZM170.278 1107.45L156.398 1101.77L156.398 1101.77L170.278 1107.45ZM-114.193 737.2L-128.33 732.185L-128.33 732.185L-114.193 737.2ZM-85.1697 635.056L-85.1697 620.056L-67.3275 620.056L-70.3927 637.633L-85.1697 635.056ZM-134.077 635.056L-134.077 650.056L-149.857 650.056L-149.058 634.296L-134.077 635.056ZM-132.532 604.597L-132.532 589.597L-116.752 589.597L-117.551 605.357L-132.532 604.597ZM-178 604.597L-178 619.597L-216.833 619.597L-188.083 593.492L-178 604.597ZM-130.885 572.139L-115.905 572.899L-116.359 581.866L-124.477 585.701L-130.885 572.139ZM-111.13 182.714L-126.111 181.954L-96.4981 179.411L-111.13 182.714ZM-31.6147 212.731L-46.1548 209.045L-46.1548 209.045L-31.6147 212.731ZM157.999 182.714L165.604 195.643L151.639 203.857L144.524 189.302L157.999 182.714ZM313.061 169.196L307.496 183.126L307.496 183.126L313.061 169.196ZM441.463 24.0995L427.206 19.4375L429.613 12.0754L437.01 9.7758L441.463 24.0995ZM570.4 60.6191L577.752 47.5447L570.4 60.6191ZM705.999 99.0192L701.939 84.5793L701.939 84.5793L705.999 99.0192ZM908.732 152.258L917.665 140.208L917.665 140.208L908.732 152.258ZM1119.5 122.084L1108.07 112.364L1114.8 104.455L1124.57 107.969L1119.5 122.084ZM1343.08 92.5324L1357.5 96.6577L1357.5 96.6577L1343.08 92.5324ZM1395.5 36.6958L1394.1 21.7608L1401.39 21.0806L1406.41 26.4025L1395.5 36.6958ZM1414.27 56.6138L1425.19 46.33L1425.19 46.33L1414.27 56.6138ZM1631.5 234.463L1636.98 220.499L1636.98 220.499L1631.5 234.463ZM1716.01 170.753L1729.96 176.274L1729.96 176.274L1716.01 170.753ZM1784 36.6959L1771.6 28.2554L1780.77 14.7818L1793.44 25.0379L1784 36.6959ZM2002.99 575.792L2017.12 580.807L2017.12 580.807L2002.99 575.792ZM1984.08 635.056L1984.08 620.056L2005.5 620.056L1998.17 640.19L1984.08 635.056ZM1943.62 635.056L1928.71 636.751L1926.81 620.056L1943.62 620.056L1943.62 635.056ZM1999.92 1130.28L2014.83 1128.58L1985.29 1133.58L1999.92 1130.28ZM1880.73 1041.01L1892.8 1049.92L1892.8 1049.92L1880.73 1041.01ZM1650.3 963.044L1641.03 951.252L1655.63 939.778L1663.78 956.455L1650.3 963.044ZM1611.9 989.649L1619.96 1002.3L1619.96 1002.3L1611.9 989.649ZM1447.33 1288.89L1461.59 1293.55L1459.18 1300.92L1451.78 1303.22L1447.33 1288.89ZM1194.42 1078.79L1206.86 1070.41L1206.86 1070.41L1194.42 1078.79ZM847.924 1114.79L859.349 1124.51L850.316 1135.13L839.066 1126.9L847.924 1114.79ZM585.134 1142.39L570.146 1141.8L570.146 1141.8L585.134 1142.39ZM545.424 1246.32L546.818 1261.25L546.818 1261.25L545.424 1246.32ZM370.835 1124.95L382.07 1115.01L382.07 1115.01L370.835 1124.95ZM262.924 1028.26L268.403 1014.3L268.403 1014.3L262.924 1028.26ZM87.0238 1237.88C121.127 1187.78 140.556 1140.44 156.398 1101.77L184.159 1113.14C168.3 1151.85 147.867 1201.81 111.824 1254.76L87.0238 1237.88ZM-100.056 742.214C-147.546 876.092 -97.1325 998.118 -32.5703 1088.44C-0.387346 1133.46 34.9155 1169.99 62.2198 1195.29C75.8546 1207.92 87.4499 1217.71 95.5992 1224.32C99.6726 1227.62 102.882 1230.12 105.05 1231.78C106.134 1232.61 106.957 1233.23 107.498 1233.63C107.769 1233.83 107.968 1233.98 108.095 1234.08C108.158 1234.12 108.203 1234.15 108.229 1234.17C108.242 1234.18 108.25 1234.19 108.254 1234.19C108.256 1234.19 108.255 1234.19 108.256 1234.19C108.254 1234.19 108.251 1234.19 99.4237 1246.32C90.5967 1258.45 90.5911 1258.44 90.5843 1258.44C90.5805 1258.43 90.5725 1258.43 90.5648 1258.42C90.5494 1258.41 90.5293 1258.4 90.5045 1258.38C90.4548 1258.34 90.3862 1258.29 90.2992 1258.23C90.1251 1258.1 89.877 1257.92 89.5577 1257.68C88.9191 1257.2 87.9954 1256.51 86.8089 1255.6C84.4361 1253.78 81.011 1251.11 76.7118 1247.62C68.1159 1240.66 56.012 1230.44 41.831 1217.3C13.5036 1191.05 -23.292 1153.01 -56.9761 1105.88C-124.148 1011.91 -180.543 879.38 -128.33 732.185L-100.056 742.214ZM-70.3927 637.633C-74.9707 663.886 -84.4018 698.082 -100.056 742.214L-128.33 732.185C-112.974 688.893 -104.126 656.443 -99.9467 632.479L-70.3927 637.633ZM-134.077 620.056L-85.1697 620.056L-85.1697 650.056L-134.077 650.056L-134.077 620.056ZM-117.551 605.357L-119.096 635.816L-149.058 634.296L-147.513 603.837L-117.551 605.357ZM-132.532 619.597L-178 619.597L-178 589.597L-132.532 589.597L-132.532 619.597ZM-178 604.597C-188.083 593.492 -188.082 593.491 -188.081 593.489C-188.08 593.489 -188.078 593.487 -188.077 593.486C-188.075 593.484 -188.072 593.482 -188.069 593.479C-188.062 593.473 -188.054 593.466 -188.045 593.457C-188.027 593.441 -188.003 593.419 -187.973 593.392C-187.913 593.338 -187.831 593.265 -187.727 593.172C-187.52 592.986 -187.225 592.724 -186.848 592.394C-186.096 591.732 -185.016 590.795 -183.654 589.644C-180.934 587.345 -177.067 584.174 -172.42 580.635C-163.257 573.656 -150.521 564.827 -137.294 558.577L-124.477 585.701C-134.953 590.651 -145.774 598.051 -154.243 604.501C-158.412 607.676 -161.879 610.52 -164.289 612.557C-165.492 613.574 -166.426 614.385 -167.047 614.93C-167.357 615.203 -167.588 615.408 -167.735 615.539C-167.808 615.605 -167.861 615.652 -167.891 615.68C-167.906 615.693 -167.916 615.702 -167.92 615.706C-167.923 615.708 -167.923 615.708 -167.923 615.708C-167.922 615.707 -167.922 615.707 -167.92 615.706C-167.92 615.705 -167.919 615.704 -167.919 615.704C-167.918 615.703 -167.916 615.702 -178 604.597ZM-96.1492 183.474L-115.905 572.899L-145.866 571.379L-126.111 181.954L-96.1492 183.474ZM-17.0745 216.417C-22.7116 238.655 -28.1217 260.042 -33.6754 276.341C-36.4437 284.465 -39.4789 292.035 -42.934 298.085C-45.959 303.381 -51.1567 310.923 -59.75 313.806C-70.8076 317.516 -79.795 311.668 -85.0537 305.866C-90.1466 300.248 -94.4679 292.101 -98.4535 282.475C-106.575 262.86 -115.477 231.581 -125.762 186.017L-96.4981 179.411C-86.2639 224.751 -77.8131 253.904 -70.7355 270.998C-67.1217 279.726 -64.3822 284.002 -62.8261 285.719C-61.4361 287.252 -64.1866 283.651 -69.2927 285.364C-71.9346 286.251 -71.4664 287.552 -68.9844 283.206C-66.9324 279.613 -64.6195 274.141 -62.0721 266.665C-56.9943 251.763 -51.9024 231.72 -46.1548 209.045L-17.0745 216.417ZM144.524 189.302C114.703 128.305 90.8246 94.8314 72.2815 79.3362C63.2028 71.7498 56.5562 69.4508 52.0537 69.1642C47.9032 68.9 43.6404 70.2147 38.7183 74.2842C27.7795 83.3281 17.318 102.876 7.56165 130.17C-1.93014 156.723 -9.75747 187.551 -17.0745 216.417L-46.1548 209.045C-38.9183 180.497 -30.7494 148.219 -20.6878 120.072C-10.8907 92.6642 1.75857 65.9159 19.6025 51.1631C29.0718 43.3342 40.6184 38.3755 53.9595 39.2248C66.9487 40.0516 79.4762 46.2529 91.5182 56.3156C115.216 76.1186 141.366 114.538 171.475 176.126L144.524 189.302ZM307.496 183.126C290.591 176.372 273.199 169.532 251.201 169.045C229.461 168.563 201.847 174.325 165.604 195.643L150.394 169.784C190.557 146.161 223.609 138.426 251.866 139.052C279.865 139.673 301.802 148.545 318.626 155.267L307.496 183.126ZM455.72 28.7614C441.436 72.4435 428.978 105.081 417.498 129.122C406.126 152.936 395.145 169.559 383.263 180.004C370.587 191.146 357.271 194.902 343.43 193.717C330.984 192.652 318.482 187.515 307.496 183.126L318.626 155.267C330.837 160.145 338.884 163.218 345.988 163.826C351.696 164.315 356.931 163.207 363.457 157.471C370.776 151.038 379.647 138.767 390.426 116.195C401.097 93.8491 413.09 62.6072 427.206 19.4375L455.72 28.7614ZM563.047 73.6936C540.658 61.1025 519.898 49.4769 499.798 42.3687C479.904 35.3332 462.273 33.3378 445.916 38.4231L437.01 9.7758C461.865 2.04808 486.587 5.87589 509.801 14.0852C532.809 22.2218 555.912 35.2626 577.752 47.5447L563.047 73.6936ZM710.06 113.459C683.577 120.907 657.568 116.782 633.239 108.179C609.123 99.6518 585.282 86.1974 563.047 73.6936L577.752 47.5447C600.5 60.3368 622.021 72.3922 643.24 79.8955C664.247 87.3236 683.547 89.7512 701.939 84.5793L710.06 113.459ZM899.799 164.308C874.453 145.518 849.149 126.874 818.936 115.74C789.302 104.82 754.412 100.987 710.06 113.459L701.939 84.5793C752.501 70.3606 793.862 74.5283 829.309 87.5909C864.176 100.44 892.781 121.761 917.665 140.208L899.799 164.308ZM1130.92 131.804C1081.41 189.999 1040.34 213.56 1000.62 212.394C962.26 211.268 929.915 186.634 899.799 164.308L917.665 140.208C949.989 164.172 974.398 181.611 1001.5 182.407C1027.23 183.162 1060.33 168.491 1108.07 112.364L1130.92 131.804ZM1357.5 96.6577C1350.86 119.869 1342.17 152.937 1304.09 165.885C1286.08 172.01 1262.87 173.139 1232.6 168.672C1202.22 164.19 1163.7 153.915 1114.42 136.199L1124.57 107.969C1172.83 125.32 1209.3 134.91 1236.97 138.993C1264.75 143.091 1282.66 141.487 1294.44 137.482C1315.94 130.171 1321.51 113.396 1328.65 88.407L1357.5 96.6577ZM1396.89 51.6309C1382.08 53.0139 1374.93 58.3427 1370.2 64.7935C1364.61 72.4124 1361.49 82.6981 1357.5 96.6577L1328.65 88.407C1332.29 75.6942 1336.65 59.8101 1346.01 47.0532C1356.22 33.1281 1371.47 23.8748 1394.1 21.7608L1396.89 51.6309ZM1403.35 66.8976C1397.32 60.4948 1391.07 53.864 1384.59 46.9892L1406.41 26.4025C1412.91 33.2884 1419.16 39.9286 1425.19 46.33L1403.35 66.8976ZM1626.02 248.426C1543.45 216.026 1501.34 170.95 1403.35 66.8976L1425.19 46.33C1524.13 151.394 1561.76 190.985 1636.98 220.499L1626.02 248.426ZM1729.96 176.274C1724.49 190.073 1719.43 202.886 1714.18 213.673C1708.96 224.401 1702.97 234.377 1695.09 241.931C1686.8 249.883 1676.72 254.862 1664.4 255.814C1652.64 256.723 1639.92 253.879 1626.02 248.426L1636.98 220.499C1648.74 225.115 1656.65 226.324 1662.09 225.903C1666.98 225.526 1670.67 223.793 1674.32 220.282C1678.4 216.375 1682.53 210.139 1687.21 200.538C1691.85 190.997 1696.47 179.363 1702.06 165.233L1729.96 176.274ZM1796.4 45.1364C1761.73 96.0686 1743.87 141.122 1729.96 176.274L1702.06 165.233C1716.07 129.841 1734.93 82.1242 1771.6 28.2554L1796.4 45.1364ZM1988.85 570.778C2036.33 436.915 1984.64 307.359 1918.45 209.23C1885.51 160.398 1849.45 120.086 1821.58 91.9616C1807.66 77.9153 1795.83 66.9493 1787.51 59.5224C1783.35 55.8099 1780.07 52.9844 1777.85 51.1033C1776.74 50.1628 1775.9 49.4586 1775.34 48.998C1775.07 48.7676 1774.86 48.5982 1774.73 48.4905C1774.66 48.4367 1774.62 48.3983 1774.59 48.3755C1774.57 48.3641 1774.56 48.3566 1774.56 48.353C1774.56 48.3512 1774.56 48.3514 1774.56 48.3505C1774.56 48.3517 1774.56 48.3539 1784 36.6959C1793.44 25.0379 1793.44 25.0421 1793.45 25.0472C1793.45 25.0502 1793.46 25.0563 1793.47 25.0624C1793.48 25.0745 1793.5 25.0906 1793.53 25.1105C1793.58 25.1505 1793.65 25.2062 1793.73 25.2774C1793.91 25.42 1794.16 25.6249 1794.48 25.8914C1795.12 26.4242 1796.05 27.2033 1797.26 28.2212C1799.66 30.257 1803.13 33.2495 1807.49 37.1413C1816.21 44.923 1828.49 56.3111 1842.89 70.8464C1871.67 99.8854 1909.05 141.646 1943.32 192.454C2011.55 293.605 2069.34 433.598 2017.12 580.807L1988.85 570.778ZM1967.86 630.061C1973.75 613.397 1980.69 593.768 1988.85 570.778L2017.12 580.807C2008.97 603.788 2002.03 623.404 1996.15 640.051L1967.86 630.061ZM1982 620.056L1984.08 620.056L1984.08 650.056L1982 650.056L1982 620.056ZM1984.08 635.056C1998.17 640.19 1998.17 640.191 1998.17 640.192C1998.17 640.194 1998.17 640.196 1998.17 640.199C1998.16 640.204 1998.16 640.213 1998.16 640.224C1998.15 640.247 1998.14 640.281 1998.12 640.326C1998.09 640.415 1998.04 640.548 1997.98 640.723C1997.85 641.072 1997.66 641.586 1997.42 642.249C1996.94 643.575 1996.24 645.495 1995.37 647.871C1993.63 652.623 1991.23 659.204 1988.55 666.516C1983.2 681.125 1976.73 698.708 1972.32 710.457C1970.16 716.204 1968.37 720.894 1967.47 723.044C1967.41 723.182 1966.85 724.578 1966.12 725.801C1965.97 726.052 1965.68 726.516 1965.28 727.062C1965.04 727.388 1964.03 728.767 1962.32 730.078C1961.66 730.58 1953.8 736.495 1944.98 730.728C1942.82 729.016 1940.02 725.368 1939.23 723.686C1938.84 722.559 1938.38 720.621 1938.27 719.828C1938.11 718.342 1938.2 717.168 1938.24 716.774C1938.29 716.233 1938.36 715.798 1938.4 715.541C1938.49 715.027 1938.59 714.609 1938.64 714.391C1938.94 713.154 1939.57 711.203 1940.22 709.239C1943.18 700.299 1951.37 676.761 1967.86 630.061L1996.15 640.051C1979.62 686.858 1971.55 710.073 1968.7 718.666C1967.9 721.085 1967.74 721.691 1967.8 721.458C1967.82 721.366 1967.9 721.049 1967.97 720.612C1968.01 720.395 1968.07 719.992 1968.12 719.478C1968.15 719.111 1968.25 717.958 1968.09 716.487C1967.98 715.702 1967.52 713.771 1967.13 712.649C1966.34 710.972 1963.55 707.327 1961.39 705.617C1958.44 704.125 1952.44 703.192 1949.67 703.592C1947.85 704.154 1945.07 705.56 1944.08 706.261C1942.37 707.565 1941.38 708.931 1941.15 709.238C1940.76 709.765 1940.49 710.204 1940.36 710.425C1940.09 710.878 1939.91 711.231 1939.86 711.33C1939.79 711.472 1939.75 711.567 1939.74 711.59C1939.72 711.633 1939.74 711.595 1939.8 711.436C1940.43 709.933 1942 705.857 1944.23 699.915C1948.59 688.288 1955.03 670.806 1960.38 656.194C1963.05 648.896 1965.46 642.327 1967.19 637.582C1968.05 635.21 1968.75 633.295 1969.23 631.972C1969.48 631.311 1969.66 630.798 1969.79 630.451C1969.85 630.277 1969.9 630.145 1969.93 630.056C1969.95 630.012 1969.96 629.978 1969.97 629.956C1969.97 629.945 1969.98 629.936 1969.98 629.931C1969.98 629.928 1969.98 629.926 1969.98 629.925C1969.98 629.923 1969.98 629.923 1984.08 635.056ZM1943.62 620.056L1982 620.056L1982 650.056L1943.62 650.056L1943.62 620.056ZM1985.02 1131.97L1928.71 636.751L1958.52 633.362L2014.83 1128.58L1985.02 1131.97ZM1868.67 1032.09C1879.28 1017.75 1890.29 1002.77 1901.27 992.296C1911.7 982.341 1926.84 971.887 1944.71 977.253C1961.11 982.174 1972.91 998.752 1982.84 1020.99C1993.26 1044.31 2003.66 1078.7 2014.56 1126.98L1985.29 1133.58C1974.53 1085.91 1964.64 1053.81 1955.45 1033.22C1945.77 1011.53 1938.64 1006.75 1936.09 1005.99C1935.02 1005.67 1931.2 1005.2 1921.98 1014C1913.29 1022.29 1903.94 1034.85 1892.8 1049.92L1868.67 1032.09ZM1663.78 956.455C1692.14 1014.47 1716.9 1051.3 1738.33 1073.29C1759.67 1095.17 1776.34 1101 1789.08 1100.55C1802.24 1100.09 1815.38 1092.84 1829.27 1079.68C1843.14 1066.54 1855.89 1049.37 1868.67 1032.09L1892.8 1049.92C1880.37 1066.73 1866.05 1086.17 1849.9 1101.46C1833.78 1116.72 1813.96 1129.69 1790.14 1130.53C1765.92 1131.39 1741.59 1119.6 1716.85 1094.23C1692.21 1068.95 1665.79 1028.88 1636.83 969.632L1663.78 956.455ZM1603.84 977.001C1615.4 969.628 1627.39 961.975 1641.03 951.252L1659.57 974.836C1644.65 986.568 1631.54 994.92 1619.96 1002.3L1603.84 977.001ZM1433.07 1284.23C1473.24 1161.4 1501.8 1093.41 1527.39 1051.81C1553.74 1008.99 1577.05 994.077 1603.84 977.001L1619.96 1002.3C1594.61 1018.46 1575.78 1030.42 1552.94 1067.53C1529.36 1105.86 1501.7 1170.88 1461.59 1293.55L1433.07 1284.23ZM1206.86 1070.41C1238.73 1117.71 1280.47 1175.61 1324.16 1218.38C1346.02 1239.78 1367.73 1256.74 1388.33 1266.83C1408.86 1276.89 1426.98 1279.51 1442.88 1274.57L1451.78 1303.22C1426.12 1311.2 1399.83 1305.87 1375.13 1293.78C1350.5 1281.71 1326.16 1262.32 1303.17 1239.82C1257.16 1194.78 1214.01 1134.71 1181.98 1087.17L1206.86 1070.41ZM836.499 1105.07C880.739 1053.07 919.373 1015.3 954.163 990.352C988.949 965.412 1020.94 952.548 1051.61 952.183C1082.6 951.814 1109.87 964.233 1134.95 985.093C1159.78 1005.74 1183.15 1035.21 1206.86 1070.41L1181.98 1087.17C1158.76 1052.71 1137.29 1026.06 1115.77 1008.16C1094.5 990.472 1073.92 981.92 1051.96 982.181C1029.67 982.446 1003.61 991.814 971.643 1014.73C939.678 1037.65 902.859 1073.37 859.349 1124.51L836.499 1105.07ZM570.146 1141.8C571.136 1116.95 572.181 1089.5 577.507 1066.03C582.796 1042.73 593.129 1019.56 615.711 1007.7C638.16 995.911 667.873 997.847 705.569 1012.43C743.615 1027.14 792.808 1055.87 856.782 1102.69L839.066 1126.9C775.906 1080.67 729.185 1053.72 694.748 1040.41C659.962 1026.95 640.623 1028.5 629.662 1034.26C618.833 1039.95 611.395 1052.27 606.763 1072.67C602.169 1092.92 601.142 1117.4 600.122 1142.99L570.146 1141.8ZM544.029 1231.38C549.18 1230.9 552.504 1229 555.223 1225.96C558.299 1222.53 561.135 1216.98 563.419 1208.61C568.078 1191.54 569.087 1168.34 570.146 1141.8L600.122 1142.99C599.112 1168.32 598.116 1195.42 592.361 1216.51C589.439 1227.21 584.967 1237.71 577.574 1245.97C569.822 1254.63 559.517 1260.07 546.818 1261.25L544.029 1231.38ZM382.07 1115.01C409.489 1146.01 436.744 1176.75 464.642 1199.18C492.68 1221.72 518.824 1233.74 544.029 1231.38L546.818 1261.25C509.926 1264.7 475.978 1246.78 445.847 1222.56C415.576 1198.23 386.585 1165.39 359.6 1134.89L382.07 1115.01ZM268.403 1014.3C288.308 1022.11 307.568 1037.27 325.95 1054.81C344.478 1072.5 363.325 1093.82 382.07 1115.01L359.6 1134.89C340.641 1113.46 322.669 1093.16 305.236 1076.51C287.656 1059.73 271.813 1047.86 257.445 1042.22L268.403 1014.3ZM156.398 1101.77C162.793 1086.16 168.763 1071.57 174.865 1059.07C180.939 1046.63 187.62 1035.24 195.841 1026.4C204.31 1017.29 214.669 1010.62 227.676 1008.41C240.371 1006.24 253.909 1008.61 268.403 1014.3L257.445 1042.22C246.007 1037.73 238.224 1037.04 232.717 1037.98C227.521 1038.87 222.798 1041.46 217.813 1046.83C212.58 1052.46 207.435 1060.74 201.823 1072.24C196.24 1083.67 190.663 1097.27 184.159 1113.14L156.398 1101.77Z" fill="#DDEEFF" mask="url(#path-1-inside-1_225_43)"/>
</g>
<defs>
<linearGradient id="paint0_linear_225_43" x1="972.96" y1="149.378" x2="907.163" y2="2313.92" gradientUnits="userSpaceOnUse">
<stop stop-color="#BBDEFF"/>
<stop offset="1" stop-color="#D1BBFF"/>
</linearGradient>
<clipPath id="clip0_225_43">
<rect width="1920" height="952" fill="white" transform="matrix(-1 0 0 1 1920 0)"/>
</clipPath>
</defs>
</svg>
