<svg width="1920" height="952" viewBox="0 0 1920 952" fill="none" xmlns="http://www.w3.org/2000/svg">
<g clip-path="url(#clip0_141_6312)">
<mask id="path-1-outside-1_141_6312" maskUnits="userSpaceOnUse" x="501.5" y="-115.221" width="1446" height="1059" fill="black">
<rect fill="white" x="501.5" y="-115.221" width="1446" height="1059"/>
<path d="M517.5 110C722.5 -284.5 1920.16 7.62939e-06 1920.16 7.62939e-06C1919.38 301.646 1929.05 878.41 1931.59 925.459C1931.9 926.136 1932.04 926.816 1932 927.5C1931.9 929.396 1931.76 928.633 1931.59 925.459C1918.33 896.404 1591.89 873.029 1358.5 860C1224 800 1161.5 745 998 766C883.759 780.673 944.5 555 792.5 626C698.054 670.116 676.5 477.5 822 312.5C717.5 211 560.5 276.5 517.5 110Z"/>
</mask>
<path d="M517.5 110C722.5 -284.5 1920.16 7.62939e-06 1920.16 7.62939e-06C1919.38 301.646 1929.05 878.41 1931.59 925.459C1931.9 926.136 1932.04 926.816 1932 927.5C1931.9 929.396 1931.76 928.633 1931.59 925.459C1918.33 896.404 1591.89 873.029 1358.5 860C1224 800 1161.5 745 998 766C883.759 780.673 944.5 555 792.5 626C698.054 670.116 676.5 477.5 822 312.5C717.5 211 560.5 276.5 517.5 110Z" fill="url(#paint0_linear_141_6312)"/>
<path d="M517.5 110C722.5 -284.5 1920.16 7.62939e-06 1920.16 7.62939e-06C1919.38 301.646 1929.05 878.41 1931.59 925.459C1931.9 926.136 1932.04 926.816 1932 927.5C1931.9 929.396 1931.76 928.633 1931.59 925.459C1918.33 896.404 1591.89 873.029 1358.5 860C1224 800 1161.5 745 998 766C883.759 780.673 944.5 555 792.5 626C698.054 670.116 676.5 477.5 822 312.5C717.5 211 560.5 276.5 517.5 110Z" stroke="#DDEEFF" stroke-width="30" mask="url(#path-1-outside-1_141_6312)"/>
</g>
<defs>
<linearGradient id="paint0_linear_141_6312" x1="1141" y1="270.5" x2="1180" y2="1875" gradientUnits="userSpaceOnUse">
<stop stop-color="#BBDEFF"/>
<stop offset="1" stop-color="#D1BBFF"/>
</linearGradient>
<clipPath id="clip0_141_6312">
<rect width="1920" height="952" fill="white"/>
</clipPath>
</defs>
</svg>
