<svg width="1920" height="952" viewBox="0 0 1920 952" fill="none" xmlns="http://www.w3.org/2000/svg">
<g clip-path="url(#clip0_217_4)">
<path d="M2031.93 239.343L2029.68 237.131L2024.43 242.484C2029.68 237.131 2029.67 237.125 2029.67 237.117L2029.64 237.098L2029.58 237.038C2029.53 236.989 2029.46 236.922 2029.38 236.838C2029.2 236.671 2028.95 236.434 2028.62 236.132C2027.97 235.528 2027.01 234.662 2025.74 233.562C2023.2 231.363 2019.43 228.23 2014.36 224.392C2004.23 216.715 1988.94 206.217 1968.09 194.722C1926.38 171.727 1862.49 144.773 1773.27 128.426C1594.78 95.7229 1315.44 105.561 910.128 273.593L903.112 276.502L906.108 283.48C915.266 304.806 922.491 316.937 930.273 323.842C938.132 330.817 946.072 331.951 953.468 333.009C953.922 333.073 954.373 333.138 954.822 333.203C962.458 334.318 971.47 335.825 984.47 342.947C996.82 349.713 1013.01 361.691 1034.82 383.65C968.526 465.892 934.957 559.372 928.82 627.987C925.711 662.747 929.52 692.495 941.104 711.004C947.037 720.484 955.244 727.346 965.762 729.845C976.171 732.319 987.676 730.241 999.773 724.223C1034.29 707.051 1055.68 707.925 1070.53 715.915C1086.08 724.278 1096.77 741.489 1107.28 762.636C1109.41 766.921 1111.54 771.378 1113.7 775.907C1121.76 792.822 1130.3 810.748 1141.44 824.543C1148.67 833.495 1157.3 841.152 1168.07 846.002C1178.9 850.881 1191.41 852.7 1206.03 850.7C1244.94 845.378 1288.96 833.828 1334.74 820.587C1350.38 816.063 1366.22 811.348 1382.15 806.602C1413.07 797.392 1444.38 788.068 1475.41 779.816C1522.36 767.331 1568.08 757.471 1609.75 754.399C1651.47 751.324 1688.46 755.109 1718.33 769.302L1720.77 770.463L1723.4 769.796C1763.13 759.692 1848.01 752.609 1930.16 750.614C1971.11 749.62 2011.1 749.897 2044.12 751.659C2075.34 753.325 2099.38 756.288 2112.26 760.374C2113.24 762.09 2114.17 763.625 2115.07 764.958C2116.32 766.826 2117.75 768.705 2119.34 770.08C2120.11 770.748 2121.37 771.71 2123.08 772.252C2125.03 772.87 2127.79 772.971 2130.35 771.267C2132.57 769.788 2133.48 767.684 2133.87 766.494C2134.29 765.209 2134.43 763.936 2134.49 762.903C2134.72 758.156 2132.15 754.622 2129.52 752.374C2127.62 750.758 2125.31 749.438 2122.82 748.329C2096.98 697.637 2031.3 500.347 2031.93 242.502L2031.93 239.343Z" fill="url(#paint0_linear_217_4)" stroke="#DDEEFF" stroke-width="15"/>
</g>
<defs>
<linearGradient id="paint0_linear_217_4" x1="1316.51" y1="1086.94" x2="1268.63" y2="-285.969" gradientUnits="userSpaceOnUse">
<stop stop-color="#BBDEFF"/>
<stop offset="1" stop-color="#D1BBFF"/>
</linearGradient>
<clipPath id="clip0_217_4">
<rect width="1920" height="952" fill="white" transform="matrix(-1 0 0 1 1920 0)"/>
</clipPath>
</defs>
</svg>
