<svg width="1920" height="952" viewBox="0 0 1920 952" fill="none" xmlns="http://www.w3.org/2000/svg">
<g clip-path="url(#clip0_202_96)">
<path d="M2173.14 213.249L2170.63 211.006L2165.63 216.59C2170.63 211.006 2170.63 211 2170.62 210.993L2170.6 210.972L2170.52 210.909C2170.47 210.857 2170.38 210.785 2170.28 210.695C2170.07 210.513 2169.77 210.256 2169.38 209.925C2168.6 209.265 2167.45 208.314 2165.92 207.105C2162.87 204.687 2158.32 201.235 2152.2 197.003C2139.97 188.537 2121.5 176.948 2096.3 164.254C2045.9 138.862 1968.64 109.073 1860.7 91.0029C1644.78 54.8576 1306.52 65.663 815.343 251.717L807.766 254.587L811.212 261.921C822.334 285.588 831.039 298.863 840.256 306.336C849.385 313.738 858.474 314.926 867.414 316.096C867.954 316.166 868.493 316.237 869.032 316.309C878.43 317.562 889.627 319.279 905.671 327.311C920.903 334.936 940.753 348.387 967.41 372.955C886.992 463.997 846.223 567.606 838.775 643.693C835.003 682.23 839.649 715.122 853.597 735.486C860.727 745.895 870.398 753.15 882.486 755.775C894.444 758.371 907.856 756.241 922.268 749.69C964.406 730.536 991.161 731.246 1010.01 740.51C1029.35 750.015 1042.44 769.413 1055.13 792.743C1057.73 797.518 1060.31 802.475 1062.94 807.506C1072.71 826.237 1083.01 845.991 1096.45 861.19C1105.16 871.041 1115.44 879.345 1128.15 884.578C1140.9 889.824 1155.65 891.801 1173 889.632C1220.01 883.757 1273.25 870.998 1328.76 856.33C1347.69 851.328 1366.87 846.108 1386.18 840.853C1423.7 830.643 1461.71 820.299 1499.36 811.15C1556.33 797.307 1611.93 786.346 1662.66 782.929C1713.45 779.508 1758.72 783.699 1795.4 799.618L1797.67 800.604L1800.08 800.044C1848.53 788.788 1951.67 780.941 2051.28 778.731C2100.96 777.629 2149.52 777.935 2189.62 779.89C2227.93 781.759 2257.64 785.105 2273.43 789.823C2274.69 791.871 2275.9 793.685 2277.04 795.241C2278.55 797.304 2280.22 799.291 2282.01 800.706C2282.89 801.404 2284.21 802.302 2285.91 802.795C2287.78 803.337 2290.41 803.441 2292.92 801.912C2295.21 800.513 2296.27 798.429 2296.75 797.078C2297.24 795.685 2297.42 794.292 2297.48 793.149C2297.77 787.915 2294.67 784.169 2291.76 781.895C2289.49 780.124 2286.66 778.676 2283.57 777.451C2268.27 750.171 2241.01 683.177 2217.37 587.649C2193.08 489.483 2172.74 361.631 2173.13 216.61L2173.14 213.249ZM2291.32 788.949C2291.32 788.947 2291.32 788.943 2291.31 788.94C2291.35 788.966 2291.35 788.971 2291.32 788.949Z" fill="url(#paint0_linear_202_96)" stroke="#DDEEFF" stroke-width="15"/>
</g>
<defs>
<linearGradient id="paint0_linear_202_96" x1="1307.26" y1="1152.15" x2="1258.79" y2="-369.179" gradientUnits="userSpaceOnUse">
<stop stop-color="#BBDEFF"/>
<stop offset="1" stop-color="#D1BBFF"/>
</linearGradient>
<clipPath id="clip0_202_96">
<rect width="1920" height="952" fill="white" transform="matrix(-1 0 0 1 1920 0)"/>
</clipPath>
</defs>
</svg>
