<svg width="1920" height="952" viewBox="0 0 1920 952" fill="none" xmlns="http://www.w3.org/2000/svg">
<g clip-path="url(#clip0_204_1564)">
<path d="M-230.792 787.587L-228.828 789.741L-223.286 784.689C-228.828 789.741 -228.823 789.748 -228.816 789.755L-228.795 789.777L-228.733 789.845C-228.682 789.9 -228.611 789.976 -228.521 790.072C-228.34 790.265 -228.082 790.537 -227.744 790.886C-227.068 791.583 -226.077 792.586 -224.762 793.86C-222.133 796.409 -218.214 800.045 -212.951 804.502C-202.426 813.418 -186.528 825.623 -164.843 838.99C-121.463 865.733 -54.9713 897.102 37.9081 916.128C223.74 954.197 514.454 942.715 936.154 747.248L942.515 744.3L940.001 737.755C930.497 713.005 923.072 699.129 915.133 691.253C907.003 683.186 898.707 681.858 890.935 680.613C890.478 680.54 890.024 680.468 889.571 680.394C881.674 679.105 872.333 677.366 858.814 669.085C845.769 661.094 828.604 646.857 805.406 620.598C874.826 524.813 909.869 415.807 916.246 336.089C919.467 295.826 915.485 261.734 903.692 240.667C897.689 229.942 889.281 221.961 878.231 219.025C867.229 216.102 855.131 218.587 842.554 225.582C806.648 245.553 784.604 244.462 769.281 235.246C752.973 225.437 741.72 205.175 730.741 180.48C728.502 175.444 726.277 170.224 724.021 164.933C715.641 145.277 706.841 124.635 695.345 108.722C687.909 98.4279 679.005 89.5656 667.808 83.9266C656.502 78.2323 643.386 76.0931 628.065 78.4363C587.548 84.6332 541.728 98.0772 494.094 113.479C477.815 118.743 461.341 124.229 444.764 129.749C412.597 140.462 380.04 151.304 347.763 160.901C298.922 175.423 251.384 186.881 208.086 190.45C164.755 194.022 126.366 189.63 95.3349 173.146L92.669 171.73L89.7654 172.555C48.4796 184.293 -39.7684 192.531 -125.233 194.851C-167.818 196.007 -209.413 195.686 -243.742 193.637C-260.91 192.612 -276.172 191.161 -288.785 189.266C-299.869 187.601 -308.555 185.643 -314.614 183.487C-315.669 181.393 -316.678 179.537 -317.633 177.943C-318.909 175.814 -320.343 173.718 -321.918 172.191C-322.667 171.464 -323.966 170.348 -325.778 169.705C-327.94 168.938 -330.971 168.863 -333.635 170.849C-335.794 172.457 -336.604 174.642 -336.929 175.76C-337.302 177.038 -337.438 178.331 -337.487 179.434C-337.695 184.081 -335.449 187.774 -332.729 190.37C-330.765 192.245 -328.328 193.793 -325.681 195.101C-298.771 253.831 -230.132 483.921 -230.786 784.672L-230.792 787.587Z" fill="url(#paint0_linear_204_1564)" stroke="#DDEEFF" stroke-width="15"/>
</g>
<defs>
<linearGradient id="paint0_linear_204_1564" x1="513.208" y1="-197.595" x2="575.452" y2="1398.9" gradientUnits="userSpaceOnUse">
<stop stop-color="#BBDEFF"/>
<stop offset="1" stop-color="#D1BBFF"/>
</linearGradient>
<clipPath id="clip0_204_1564">
<rect width="1920" height="952" fill="white" transform="matrix(-1 0 0 1 1920 0)"/>
</clipPath>
</defs>
</svg>
