<svg width="235" height="235" viewBox="0 0 235 235" fill="none" xmlns="http://www.w3.org/2000/svg">
<g id="quality 1">
<g id="Group">
<path id="circle" d="M117.5 26.8291L138.454 38.9708H162.737L174.879 60.1208L196.029 72.2624V96.5458L208.171 117.5L196.029 138.454V162.737L174.879 174.879L162.737 196.029H138.454L117.5 208.171L96.5458 196.029H72.2624L60.1208 174.879L38.9708 162.737V138.454L26.8291 117.5L38.9708 96.5458V72.2624L60.1208 60.1208L72.2624 38.9708H96.5458L117.5 26.8291Z" fill="#FF8730"/>
<g id="Group_2">
<path id="Vector" d="M117.5 183.887C80.879 183.887 51.1123 154.121 51.1123 117.5C51.1123 80.879 80.879 51.1123 117.5 51.1123C154.121 51.1123 183.887 80.879 183.887 117.5C183.887 154.121 154.121 183.887 117.5 183.887ZM117.5 56.7915C84.0123 56.7915 56.7915 84.0123 56.7915 117.5C56.7915 150.987 84.0123 178.208 117.5 178.208C150.987 178.208 178.208 150.987 178.208 117.5C178.208 84.0123 150.987 56.7915 117.5 56.7915Z" fill="white"/>
</g>
<g id="Group_3">
<path id="check" d="M110.254 142.175L81.4664 119.262C79.1164 117.304 78.7247 113.975 80.6831 111.625C82.6414 109.275 85.9706 108.883 88.3206 110.841L112.996 130.621L145.896 93.804C147.854 91.6498 151.379 91.454 153.533 93.4123C155.687 95.3707 155.883 98.8956 153.925 101.05L117.696 141.587C115.737 143.741 112.408 143.937 110.254 142.175Z" fill="white"/>
</g>
</g>
</g>
</svg>
