<svg width="263" height="215" viewBox="0 0 263 215" fill="none" xmlns="http://www.w3.org/2000/svg">
<g id="save-money">
<g id="group">
<path id="hand" d="M228.612 131.028L179.206 180.434C173.469 186.411 164.862 190.634 155.778 190.634H118.644C113.942 190.634 109.719 192.467 106.611 195.575L94.2594 207.209H38L92.1078 152.384L92.0281 152.305C97.7656 146.567 105.814 142.981 114.659 142.901H168.05C173.708 142.901 178.25 147.444 178.25 153.101C178.25 158.759 173.708 163.301 168.05 163.301H125.019C123.186 163.142 121.672 164.656 121.672 166.648C121.672 168.64 123.186 170.075 125.098 170.075H167.891C172.433 170.234 176.736 168.322 179.923 165.134C183.111 161.947 184.864 157.564 184.864 153.101C185.023 151.03 184.466 148.798 183.748 146.886L214.109 116.525C218.173 112.461 224.548 112.461 228.533 116.365C232.677 120.429 232.597 127.044 228.612 131.028Z" fill="#FF8730"/>
<path id="money" d="M87.7051 82.16C87.3017 52.519 110.719 28.1324 140.36 27.7289C170.001 27.3254 194.23 50.9041 194.634 80.5451C195.037 110.186 171.379 134.417 141.897 134.818C112.416 135.219 88.1064 111.642 87.7051 82.16ZM148.35 93.6872C148.4 97.3525 145.409 100.103 139.274 100.186C133.537 100.264 128.171 98.3451 124.722 96.7184L122.161 107.592C125.292 109.302 131.769 110.888 138.143 110.801L138.254 118.929L145.664 118.828L145.55 110.461C156.354 107.923 161.366 101.4 161.252 93.0334C161.138 84.667 156.367 79.5518 146.197 76.0242C138.826 73.0962 135.38 71.7086 135.329 67.9636C135.292 65.2545 138.203 62.5052 143.621 62.4315C149.04 62.3577 153.047 63.9768 155.531 64.979L158.414 54.3403C155.124 52.6318 150.644 51.4177 144.509 51.5012L144.396 43.2145L136.986 43.3153L137.106 52.1598C127.253 54.2863 121.921 60.7345 122.033 68.9415C122.153 77.786 128.356 82.6427 138.203 85.9355C145.332 88.5481 148.301 90.0219 148.35 93.6872Z" fill="#FF8730"/>
</g>
</g>
</svg>
