<svg width="1920" height="952" viewBox="0 0 1920 952" fill="none" xmlns="http://www.w3.org/2000/svg">
<g clip-path="url(#clip0_210_2)">
<mask id="path-1-outside-1_210_2" maskUnits="userSpaceOnUse" x="797" y="59" width="1509" height="832" fill="black">
<rect fill="white" x="797" y="59" width="1509" height="832"/>
<path d="M818 251.731C1798.38 -119.631 2165.63 209.59 2165.63 209.59C2164.85 501.03 2247.38 723.461 2278.41 776.543C2286.07 779.169 2290.19 782.225 2289.99 785.738C2289.66 791.773 2285.31 788.341 2278.41 776.543C2213.75 754.356 1896.95 762.838 1798.38 785.738C1645.48 719.363 1357.94 851.959 1172.07 875.19C1042.2 891.422 1091.96 657.318 919.164 735.862C811.796 784.665 812.489 548.015 977.896 365.483C859.098 253.198 862.331 346.062 818 251.731Z"/>
</mask>
<path d="M818 251.731C1798.38 -119.631 2165.63 209.59 2165.63 209.59C2164.85 501.03 2247.38 723.461 2278.41 776.543C2286.07 779.169 2290.19 782.225 2289.99 785.738C2289.66 791.773 2285.31 788.341 2278.41 776.543C2213.75 754.356 1896.95 762.838 1798.38 785.738C1645.48 719.363 1357.94 851.959 1172.07 875.19C1042.2 891.422 1091.96 657.318 919.164 735.862C811.796 784.665 812.489 548.015 977.896 365.483C859.098 253.198 862.331 346.062 818 251.731Z" fill="url(#paint0_linear_210_2)"/>
<path d="M2165.63 209.59L2180.63 209.63L2180.65 202.908L2175.64 198.421L2165.63 209.59ZM818 251.731L812.687 237.704L797.532 243.444L804.424 258.111L818 251.731ZM977.896 365.483L989.011 375.555L998.874 364.671L988.199 354.582L977.896 365.483ZM919.164 735.862L912.957 722.206L912.957 722.206L919.164 735.862ZM1172.07 875.19L1173.93 890.074L1173.93 890.074L1172.07 875.19ZM1798.38 785.738L1792.41 799.498L1796.95 801.47L1801.78 800.349L1798.38 785.738ZM2289.99 785.738L2304.97 786.559L2304.97 786.559L2289.99 785.738ZM2165.63 209.59C2175.64 198.421 2175.63 198.411 2175.61 198.399C2175.61 198.393 2175.59 198.38 2175.58 198.369C2175.56 198.347 2175.53 198.32 2175.49 198.288C2175.42 198.223 2175.32 198.139 2175.2 198.036C2174.97 197.83 2174.64 197.548 2174.22 197.193C2173.38 196.484 2172.17 195.484 2170.58 194.226C2167.4 191.711 2162.72 188.163 2156.47 183.836C2143.97 175.181 2125.2 163.413 2099.68 150.556C2048.62 124.833 1970.64 94.8034 1861.93 76.6059C1644.46 40.2002 1304.85 51.2759 812.687 237.704L823.313 265.758C1311.53 80.8243 1645.73 70.8297 1856.98 106.194C1962.64 123.882 2037.74 152.947 2086.18 177.348C2110.41 189.553 2127.98 200.604 2139.39 208.503C2145.1 212.453 2149.27 215.615 2151.95 217.741C2153.29 218.804 2154.26 219.608 2154.87 220.121C2155.17 220.378 2155.39 220.562 2155.51 220.67C2155.57 220.724 2155.61 220.758 2155.63 220.773C2155.64 220.781 2155.64 220.784 2155.64 220.781C2155.64 220.78 2155.63 220.775 2155.63 220.774C2155.62 220.767 2155.61 220.759 2165.63 209.59ZM966.78 355.411C882.116 448.84 839.081 556.591 831.311 635.962C827.48 675.097 831.962 710.171 847.41 732.724C855.444 744.455 866.652 753.012 880.894 756.104C894.877 759.14 909.968 756.519 925.371 749.517L912.957 722.206C901.518 727.406 893.144 728.065 887.26 726.787C881.636 725.566 876.574 722.216 872.16 715.771C862.71 701.974 857.571 675.628 861.168 638.885C868.254 566.498 908.268 464.658 989.011 375.555L966.78 355.411ZM925.371 749.517C966.448 730.846 990.67 732.361 1006.7 740.241C1023.71 748.603 1035.85 766.006 1048.54 789.327C1060.38 811.093 1073.04 839.032 1090.83 859.158C1100.09 869.639 1111.28 878.742 1125.3 884.514C1139.39 890.312 1155.46 892.383 1173.93 890.074L1170.21 860.306C1156.22 862.055 1145.44 860.362 1136.72 856.771C1127.93 853.154 1120.34 847.244 1113.31 839.288C1098.5 822.539 1088.45 799.905 1074.89 774.991C1062.19 751.633 1046.25 726.252 1019.93 713.317C992.635 699.899 958.278 701.606 912.957 722.206L925.371 749.517ZM1173.93 890.074C1221.48 884.132 1275.14 871.257 1330.68 856.581C1386.61 841.802 1444.18 825.276 1501.13 811.438C1557.96 797.63 1613.07 786.786 1663.16 783.412C1713.38 780.03 1757.29 784.253 1792.41 799.498L1804.35 771.979C1763.02 754.035 1713.66 749.943 1661.15 753.48C1608.51 757.026 1551.46 768.337 1494.05 782.286C1436.77 796.203 1378.05 813.034 1323.01 827.576C1267.59 842.222 1215.6 854.633 1170.21 860.306L1173.93 890.074ZM1801.78 800.349C1849.39 789.287 1951.82 781.439 2051.44 779.229C2101.01 778.13 2149.38 778.437 2189.26 780.382C2229.87 782.362 2259.69 785.979 2273.54 790.731L2283.28 762.355C2264.8 756.013 2230.78 752.371 2190.72 750.417C2149.93 748.428 2100.82 748.127 2050.78 749.237C1951.19 751.446 1845.94 759.288 1794.99 771.127L1801.78 800.349ZM2273.54 790.731C2275.03 791.24 2276.13 791.699 2276.91 792.08C2277.72 792.474 2277.98 792.686 2277.92 792.635C2277.88 792.602 2277.13 792.025 2276.38 790.743C2275.55 789.309 2274.89 787.275 2275.02 784.917L2304.97 786.559C2305.45 777.848 2300.24 771.999 2296.37 768.982C2292.49 765.956 2287.74 763.885 2283.28 762.355L2273.54 790.731ZM2275.02 784.917C2275.02 784.893 2275.05 783.927 2275.55 782.524C2276.03 781.203 2277.46 777.98 2281.21 775.695C2285.39 773.152 2289.62 773.443 2292.18 774.185C2294.4 774.829 2295.71 775.859 2295.98 776.071C2296.56 776.534 2296.3 776.468 2295.18 774.936C2294.2 773.598 2292.92 771.64 2291.36 768.972L2265.46 784.114C2267.35 787.345 2269.2 790.241 2270.99 792.675C2272.63 794.917 2274.77 797.543 2277.35 799.584C2278.61 800.586 2280.82 802.126 2283.82 802.998C2287.17 803.968 2292.08 804.204 2296.82 801.318C2301.13 798.69 2303.01 794.838 2303.81 792.596C2304.64 790.271 2304.89 788.092 2304.97 786.559L2275.02 784.917ZM2291.36 768.972C2276.87 744.185 2248.9 676.859 2224.65 578.848C2200.49 481.189 2180.24 353.951 2180.63 209.63L2150.63 209.55C2150.24 356.669 2170.87 486.367 2195.53 586.053C2220.11 685.389 2248.92 755.819 2265.46 784.114L2291.36 768.972ZM804.424 258.111C815.586 281.862 824.885 296.529 835.533 305.162C847.105 314.544 858.911 315.526 868.04 316.743C877.045 317.944 887.32 319.512 902.314 327.018C917.68 334.71 938.558 348.942 967.592 376.384L988.199 354.582C957.835 325.882 934.568 309.615 915.743 300.191C896.545 290.581 882.584 288.417 872.005 287.006C861.551 285.612 858.429 285.105 854.427 281.859C849.5 277.865 842.579 268.765 831.576 245.351L804.424 258.111Z" fill="#DDEEFF" mask="url(#path-1-outside-1_210_2)"/>
</g>
<defs>
<linearGradient id="paint0_linear_210_2" x1="1307.26" y1="1145.15" x2="1258.79" y2="-376.179" gradientUnits="userSpaceOnUse">
<stop stop-color="#BBDEFF"/>
<stop offset="1" stop-color="#D1BBFF"/>
</linearGradient>
<clipPath id="clip0_210_2">
<rect width="1920" height="952" fill="white" transform="matrix(-1 0 0 1 1920 0)"/>
</clipPath>
</defs>
</svg>
