<svg width="661" height="661" viewBox="0 0 661 661" fill="none" xmlns="http://www.w3.org/2000/svg">
<path d="M614.545 393.864C595.072 445.99 555.306 502.413 499.346 519.123C414.738 544.373 404.69 612.522 253.242 606.203C231.12 605.383 209.152 602.165 187.724 596.606C177.255 593.842 166.971 590.42 156.934 586.36C68.4794 550.521 22.3283 471.65 18.5078 389.131C13.4577 280.581 89.1819 228.852 138.4 198.565C187.618 168.278 246.936 50.8839 395.859 55.934C418.601 56.6163 441.189 59.9166 463.176 65.7697C513.293 79.3334 564.229 109.396 593.842 153.18C596.063 156.468 598.187 159.834 600.214 163.28C639.848 230.504 641.077 322.793 614.545 393.864Z" fill="#FF8730"/>
<path opacity="0.7" d="M614.545 393.864C595.072 445.99 555.306 502.413 499.346 519.123C414.738 544.373 404.69 612.522 253.242 606.203C231.12 605.383 209.152 602.165 187.724 596.606C177.255 593.842 166.971 590.42 156.934 586.36C68.4794 550.521 22.3283 471.65 18.5078 389.131C13.4577 280.581 89.1819 228.852 138.4 198.565C187.618 168.278 246.936 50.8839 395.859 55.934C418.601 56.6163 441.189 59.9166 463.176 65.7697C513.293 79.3334 564.229 109.396 593.842 153.18C596.063 156.468 598.187 159.834 600.214 163.28C639.848 230.504 641.077 322.793 614.545 393.864Z" fill="white"/>
<g opacity="0.2">
<path d="M266.356 55.5239H120.302V466.481H266.356V55.5239Z" stroke="black" stroke-miterlimit="10" stroke-linecap="round"/>
<path d="M121.082 68.0169H266.065L262.655 56.7271" stroke="black" stroke-miterlimit="10" stroke-linecap="round"/>
<path d="M121.082 81.6995H266.065L262.655 70.4097" stroke="black" stroke-miterlimit="10" stroke-linecap="round"/>
<path d="M121.082 95.3822H266.065L262.655 84.0791" stroke="black" stroke-miterlimit="10" stroke-linecap="round"/>
<path d="M121.082 109.065H266.065L262.655 97.7617" stroke="black" stroke-miterlimit="10" stroke-linecap="round"/>
<path d="M121.082 122.747H266.065L262.655 111.444" stroke="black" stroke-miterlimit="10" stroke-linecap="round"/>
<path d="M121.082 136.431H266.065L262.655 125.127" stroke="black" stroke-miterlimit="10" stroke-linecap="round"/>
<path d="M121.082 150.113H266.065L262.655 138.81" stroke="black" stroke-miterlimit="10" stroke-linecap="round"/>
<path d="M121.082 163.796H266.065L262.655 152.493" stroke="black" stroke-miterlimit="10" stroke-linecap="round"/>
<path d="M121.082 177.478H266.065L262.655 166.175" stroke="black" stroke-miterlimit="10" stroke-linecap="round"/>
<path d="M121.082 191.161H266.065L262.655 179.858" stroke="black" stroke-miterlimit="10" stroke-linecap="round"/>
<path d="M121.082 204.844H266.065L262.655 193.541" stroke="black" stroke-miterlimit="10" stroke-linecap="round"/>
<path d="M121.082 218.527H266.065L262.655 207.224" stroke="black" stroke-miterlimit="10" stroke-linecap="round"/>
<path d="M121.082 232.209H266.065L262.655 220.906" stroke="black" stroke-miterlimit="10" stroke-linecap="round"/>
<path d="M121.082 245.892H266.065L262.655 234.589" stroke="black" stroke-miterlimit="10" stroke-linecap="round"/>
<path d="M121.082 259.561H266.065L262.655 248.271" stroke="black" stroke-miterlimit="10" stroke-linecap="round"/>
<path d="M121.082 273.244H266.065L262.655 261.954" stroke="black" stroke-miterlimit="10" stroke-linecap="round"/>
<path d="M121.082 286.927H266.065L262.655 275.637" stroke="black" stroke-miterlimit="10" stroke-linecap="round"/>
<path d="M121.082 300.61H266.065L262.655 289.32" stroke="black" stroke-miterlimit="10" stroke-linecap="round"/>
<path d="M121.082 314.292H266.065L262.655 303.002" stroke="black" stroke-miterlimit="10" stroke-linecap="round"/>
<path d="M121.082 327.975H266.065L262.655 316.685" stroke="black" stroke-miterlimit="10" stroke-linecap="round"/>
<path d="M121.082 341.658H266.065L262.655 330.368" stroke="black" stroke-miterlimit="10" stroke-linecap="round"/>
<path d="M121.082 355.34H266.065L262.655 344.05" stroke="black" stroke-miterlimit="10" stroke-linecap="round"/>
<path d="M121.082 369.023H266.065L262.655 357.72" stroke="black" stroke-miterlimit="10" stroke-linecap="round"/>
<path d="M121.082 382.706H266.065L262.655 371.403" stroke="black" stroke-miterlimit="10" stroke-linecap="round"/>
<path d="M121.082 396.389H266.065L262.655 385.085" stroke="black" stroke-miterlimit="10" stroke-linecap="round"/>
<path d="M121.082 410.071H266.065L262.655 398.768" stroke="black" stroke-miterlimit="10" stroke-linecap="round"/>
<path d="M121.082 423.754H266.065L262.655 412.451" stroke="black" stroke-miterlimit="10" stroke-linecap="round"/>
<path d="M121.082 437.436H266.065L262.655 426.133" stroke="black" stroke-miterlimit="10" stroke-linecap="round"/>
<path d="M121.082 451.119H266.065L262.655 439.816" stroke="black" stroke-miterlimit="10" stroke-linecap="round"/>
</g>
<g opacity="0.2">
<path d="M423.41 55.5239H277.355V466.481H423.41V55.5239Z" stroke="black" stroke-miterlimit="10" stroke-linecap="round"/>
<path d="M278.135 68.0169H423.119L419.721 56.7271" stroke="black" stroke-miterlimit="10" stroke-linecap="round"/>
<path d="M278.135 81.6995H423.119L419.721 70.4097" stroke="black" stroke-miterlimit="10" stroke-linecap="round"/>
<path d="M278.135 95.3822H423.119L419.721 84.0791" stroke="black" stroke-miterlimit="10" stroke-linecap="round"/>
<path d="M278.135 109.065H423.119L419.721 97.7617" stroke="black" stroke-miterlimit="10" stroke-linecap="round"/>
<path d="M278.135 122.747H423.119L419.721 111.444" stroke="black" stroke-miterlimit="10" stroke-linecap="round"/>
<path d="M278.135 136.431H423.119L419.721 125.127" stroke="black" stroke-miterlimit="10" stroke-linecap="round"/>
<path d="M278.135 150.113H423.119L419.721 138.81" stroke="black" stroke-miterlimit="10" stroke-linecap="round"/>
<path d="M278.135 163.796H423.119L419.721 152.493" stroke="black" stroke-miterlimit="10" stroke-linecap="round"/>
<path d="M278.135 177.478H423.119L419.721 166.175" stroke="black" stroke-miterlimit="10" stroke-linecap="round"/>
<path d="M278.135 191.161H423.119L419.721 179.858" stroke="black" stroke-miterlimit="10" stroke-linecap="round"/>
<path d="M278.135 204.844H423.119L419.721 193.541" stroke="black" stroke-miterlimit="10" stroke-linecap="round"/>
<path d="M278.135 218.527H423.119L419.721 207.224" stroke="black" stroke-miterlimit="10" stroke-linecap="round"/>
<path d="M278.135 232.209H423.119L419.721 220.906" stroke="black" stroke-miterlimit="10" stroke-linecap="round"/>
<path d="M278.135 245.892H423.119L419.721 234.589" stroke="black" stroke-miterlimit="10" stroke-linecap="round"/>
<path d="M278.135 259.561H423.119L419.721 248.271" stroke="black" stroke-miterlimit="10" stroke-linecap="round"/>
<path d="M278.135 273.244H423.119L419.721 261.954" stroke="black" stroke-miterlimit="10" stroke-linecap="round"/>
<path d="M278.135 286.927H423.119L419.721 275.637" stroke="black" stroke-miterlimit="10" stroke-linecap="round"/>
<path d="M278.135 300.61H423.119L419.721 289.32" stroke="black" stroke-miterlimit="10" stroke-linecap="round"/>
<path d="M278.135 314.292H423.119L419.721 303.002" stroke="black" stroke-miterlimit="10" stroke-linecap="round"/>
<path d="M278.135 327.975H423.119L419.721 316.685" stroke="black" stroke-miterlimit="10" stroke-linecap="round"/>
<path d="M278.135 341.658H423.119L419.721 330.368" stroke="black" stroke-miterlimit="10" stroke-linecap="round"/>
<path d="M278.135 355.34H423.119L419.721 344.05" stroke="black" stroke-miterlimit="10" stroke-linecap="round"/>
<path d="M278.135 369.023H423.119L419.721 357.72" stroke="black" stroke-miterlimit="10" stroke-linecap="round"/>
<path d="M278.135 382.706H423.119L419.721 371.403" stroke="black" stroke-miterlimit="10" stroke-linecap="round"/>
<path d="M278.135 396.389H423.119L419.721 385.085" stroke="black" stroke-miterlimit="10" stroke-linecap="round"/>
<path d="M278.135 410.071H423.119L419.721 398.768" stroke="black" stroke-miterlimit="10" stroke-linecap="round"/>
<path d="M278.135 423.754H423.119L419.721 412.451" stroke="black" stroke-miterlimit="10" stroke-linecap="round"/>
<path d="M278.135 437.436H423.119L419.721 426.133" stroke="black" stroke-miterlimit="10" stroke-linecap="round"/>
<path d="M278.135 451.119H423.119L419.721 439.816" stroke="black" stroke-miterlimit="10" stroke-linecap="round"/>
</g>
<g opacity="0.3">
<path d="M55.0875 81.5278H31.2915V105.324H55.0875V81.5278Z" stroke="black" stroke-miterlimit="10" stroke-linecap="round"/>
<path d="M55.0875 122.06H31.2915V145.856H55.0875V122.06Z" stroke="black" stroke-miterlimit="10" stroke-linecap="round"/>
<path d="M63.8921 93.8618H100.036" stroke="black" stroke-miterlimit="10" stroke-linecap="round"/>
<path d="M63.8921 133.522H100.036" stroke="black" stroke-miterlimit="10" stroke-linecap="round"/>
<path d="M36.5796 88.574L40.0961 95.6202L55.9601 71.8242" stroke="black" stroke-miterlimit="10" stroke-linecap="round"/>
</g>
<g opacity="0.3">
<path d="M406.739 556.126H382.943V579.922H406.739V556.126Z" stroke="black" stroke-miterlimit="10" stroke-linecap="round"/>
<path d="M406.739 596.658H382.943V620.454H406.739V596.658Z" stroke="black" stroke-miterlimit="10" stroke-linecap="round"/>
<path d="M415.544 568.46H451.687" stroke="black" stroke-miterlimit="10" stroke-linecap="round"/>
<path d="M415.544 608.12H451.687" stroke="black" stroke-miterlimit="10" stroke-linecap="round"/>
<path d="M388.231 563.172L391.748 570.218L407.612 546.422" stroke="black" stroke-miterlimit="10" stroke-linecap="round"/>
</g>
<g opacity="0.3">
<path d="M486.496 68.7441H462.7V92.5401H486.496V68.7441Z" stroke="black" stroke-miterlimit="10" stroke-linecap="round"/>
<path d="M486.496 109.29H462.7V133.086H486.496V109.29Z" stroke="black" stroke-miterlimit="10" stroke-linecap="round"/>
<path d="M495.313 81.0781H531.444" stroke="black" stroke-miterlimit="10" stroke-linecap="round"/>
<path d="M495.313 120.738H531.444" stroke="black" stroke-miterlimit="10" stroke-linecap="round"/>
<path d="M467.988 75.7902L471.518 82.8497L487.382 59.0537" stroke="black" stroke-miterlimit="10" stroke-linecap="round"/>
</g>
<path d="M622.027 593.393H641.699" stroke="#263238" stroke-linecap="round" stroke-linejoin="round"/>
<path d="M33.0498 593.393H612.866" stroke="#263238" stroke-linecap="round" stroke-linejoin="round"/>
<path d="M105.112 504.674C113.618 504.674 120.514 486.592 120.514 464.287C120.514 441.981 113.618 423.899 105.112 423.899C96.6063 423.899 89.7109 441.981 89.7109 464.287C89.7109 486.592 96.6063 504.674 105.112 504.674Z" fill="#FF8730" stroke="#263238" stroke-miterlimit="10"/>
<path d="M152.964 439.411C157.778 424.263 156.333 410.284 149.736 408.187C143.14 406.091 133.89 416.672 129.076 431.82C124.262 446.968 125.707 460.947 132.303 463.044C138.9 465.14 148.15 454.559 152.964 439.411Z" fill="#FF8730" stroke="#263238" stroke-miterlimit="10"/>
<path d="M39.9774 530.73C24.2985 528.086 12.5327 520.392 13.696 513.544C14.8594 506.696 28.4892 503.338 44.1021 505.996C59.7149 508.653 71.5468 516.334 70.3966 523.182C69.2465 530.03 55.6431 533.374 39.9774 530.73Z" fill="#FF8730" stroke="#263238" stroke-miterlimit="10"/>
<path d="M167.439 493.411C180.529 480.43 186.286 465.01 180.296 458.97C174.307 452.931 158.84 458.558 145.75 471.539C132.659 484.52 126.903 499.94 132.892 505.979C138.881 512.019 154.349 506.392 167.439 493.411Z" fill="#FF8730" stroke="#263238" stroke-miterlimit="10"/>
<path d="M77.2446 457.782C89.8961 476.145 93.677 495.512 85.6789 501.038C77.6808 506.564 60.9178 496.134 48.2663 477.771C35.6148 459.408 31.8338 440.054 39.8319 434.528C47.8301 429.002 64.593 439.42 77.2446 457.782Z" fill="#FF8730" stroke="#263238" stroke-miterlimit="10"/>
<path d="M106.196 502.651L107.386 558.175" stroke="#263238" stroke-miterlimit="10" stroke-linecap="round"/>
<path d="M104.755 449.269L106.196 502.651" stroke="#263238" stroke-miterlimit="10" stroke-linecap="round"/>
<path d="M104.861 440.557L104.755 444.642" stroke="#263238" stroke-miterlimit="10" stroke-linecap="round"/>
<path d="M85.6128 498.394C94.4429 516.638 99.6124 536.436 100.829 556.668" stroke="#263238" stroke-miterlimit="10" stroke-linecap="round"/>
<path d="M59.1729 457.941C69.7411 470.193 78.6324 483.797 85.6129 498.394" stroke="#263238" stroke-miterlimit="10" stroke-linecap="round"/>
<path d="M50.8442 449.137C50.8442 449.137 52.4439 450.591 55.0614 453.38" stroke="#263238" stroke-miterlimit="10" stroke-linecap="round"/>
<path d="M133.866 504.105C123.063 519.244 114.645 535.95 108.906 553.641" stroke="#263238" stroke-miterlimit="10" stroke-linecap="round"/>
<path d="M151.581 483.747C145.055 489.967 139.125 496.783 133.866 504.105" stroke="#263238" stroke-miterlimit="10" stroke-linecap="round"/>
<path d="M170.538 469.31C165.725 472.022 161.206 475.225 157.054 478.868" stroke="#263238" stroke-miterlimit="10" stroke-linecap="round"/>
<path d="M133.218 459.263C124.678 486.1 113.23 525.773 107.889 560.198" stroke="#263238" stroke-miterlimit="10" stroke-linecap="round"/>
<path d="M138.414 443.333C136.893 447.867 135.122 453.235 133.218 459.197" stroke="#263238" stroke-miterlimit="10" stroke-linecap="round"/>
<path d="M143.728 427.932C143.728 427.932 142.247 432.043 139.841 439.089" stroke="#263238" stroke-miterlimit="10" stroke-linecap="round"/>
<path d="M69.6562 519.467C80.3116 523.499 90.7157 531.299 95.779 546.065" stroke="#263238" stroke-miterlimit="10" stroke-linecap="round"/>
<path d="M49.9717 515.461C56.6955 515.784 63.3319 517.122 69.6563 519.427" stroke="#263238" stroke-miterlimit="10" stroke-linecap="round"/>
<path d="M37.2144 515.778C37.2144 515.778 39.118 515.501 42.238 515.382" stroke="#263238" stroke-miterlimit="10" stroke-linecap="round"/>
<path d="M174.094 530.73C189.773 528.086 201.539 520.392 200.375 513.544C199.212 506.696 185.582 503.338 169.969 505.996C154.357 508.653 142.525 516.334 143.675 523.182C144.825 530.03 158.428 533.374 174.094 530.73Z" fill="#FF8730" stroke="#263238" stroke-miterlimit="10"/>
<path d="M144.759 519.335C133.985 523.301 123.409 531.14 118.319 546.066" stroke="#263238" stroke-miterlimit="10" stroke-linecap="round"/>
<path d="M165.753 515.382C158.59 515.593 151.505 516.932 144.759 519.348" stroke="#263238" stroke-miterlimit="10" stroke-linecap="round"/>
<path d="M176.857 515.779C176.857 515.779 175.615 515.594 173.46 515.461" stroke="#263238" stroke-miterlimit="10" stroke-linecap="round"/>
<path d="M144.534 593.248C149.256 583.333 151.738 572.501 151.805 561.52C151.82 554.928 150.839 548.372 148.897 542.073H66.933C64.9906 548.372 64.0101 554.928 64.0246 561.52C64.0895 572.503 66.5767 583.336 71.3088 593.248H144.534Z" fill="#263238"/>
<path d="M64.7783 551.116C64.5404 552.61 64.3685 554.117 64.2363 555.65H151.554C151.422 554.117 151.237 552.61 150.999 551.116H64.7783Z" fill="#7A7A7A"/>
<path d="M150.616 574.33C150.893 572.823 151.131 571.316 151.316 569.795H64.4741C64.646 571.316 64.8839 572.823 65.1616 574.33H150.616Z" fill="#7A7A7A"/>
<path d="M74.5742 561.718C74.5742 562.419 74.3661 563.105 73.9762 563.688C73.5863 564.27 73.0322 564.725 72.384 564.992C71.7358 565.26 71.0228 565.329 70.3352 565.192C69.6475 565.054 69.0163 564.715 68.5213 564.218C68.0264 563.721 67.69 563.089 67.5548 562.401C67.4195 561.713 67.4916 561 67.7618 560.353C68.032 559.706 68.4881 559.153 69.0725 558.765C69.6569 558.378 70.3432 558.172 71.0445 558.175C71.9818 558.178 72.8796 558.553 73.5412 559.217C74.2028 559.881 74.5742 560.78 74.5742 561.718Z" fill="#8C8C8C"/>
<path d="M92.2362 561.718C92.2336 562.416 92.0244 563.097 91.6349 563.676C91.2455 564.254 90.6933 564.705 90.0481 564.97C89.4029 565.235 88.6936 565.303 88.0098 565.165C87.326 565.028 86.6983 564.69 86.2059 564.196C85.7136 563.702 85.3787 563.073 85.2436 562.389C85.1085 561.704 85.1792 560.995 85.4467 560.351C85.7142 559.707 86.1667 559.157 86.7468 558.769C87.327 558.382 88.0089 558.175 88.7065 558.175C89.1711 558.175 89.6312 558.267 90.0603 558.445C90.4894 558.623 90.8791 558.885 91.2071 559.214C91.535 559.543 91.7947 559.934 91.9713 560.363C92.1479 560.793 92.2379 561.254 92.2362 561.718Z" fill="#8C8C8C"/>
<path d="M109.911 561.718C109.911 562.419 109.703 563.105 109.313 563.688C108.923 564.27 108.369 564.725 107.721 564.992C107.073 565.26 106.36 565.329 105.672 565.192C104.984 565.054 104.353 564.715 103.858 564.218C103.363 563.721 103.027 563.089 102.892 562.401C102.756 561.713 102.829 561 103.099 560.353C103.369 559.706 103.825 559.153 104.409 558.765C104.994 558.378 105.68 558.172 106.381 558.175C107.319 558.178 108.217 558.553 108.878 559.217C109.54 559.881 109.911 560.78 109.911 561.718Z" fill="#8C8C8C"/>
<path d="M127.573 561.718C127.571 562.416 127.361 563.097 126.972 563.676C126.582 564.254 126.03 564.705 125.385 564.97C124.74 565.235 124.031 565.303 123.347 565.165C122.663 565.028 122.035 564.69 121.543 564.196C121.051 563.702 120.716 563.073 120.581 562.389C120.445 561.704 120.516 560.995 120.784 560.351C121.051 559.707 121.504 559.157 122.084 558.769C122.664 558.382 123.346 558.175 124.043 558.175C124.508 558.175 124.968 558.267 125.397 558.445C125.826 558.623 126.216 558.885 126.544 559.214C126.872 559.543 127.132 559.934 127.308 560.363C127.485 560.793 127.575 561.254 127.573 561.718Z" fill="#8C8C8C"/>
<path d="M145.248 561.718C145.248 562.419 145.04 563.105 144.65 563.688C144.26 564.27 143.706 564.725 143.058 564.992C142.41 565.26 141.697 565.329 141.009 565.192C140.321 565.054 139.69 564.715 139.195 564.218C138.7 563.721 138.364 563.089 138.229 562.401C138.093 561.713 138.165 561 138.436 560.353C138.706 559.706 139.162 559.153 139.746 558.765C140.331 558.378 141.017 558.172 141.718 558.175C142.656 558.178 143.553 558.553 144.215 559.217C144.877 559.881 145.248 560.78 145.248 561.718Z" fill="#8C8C8C"/>
<path d="M619.278 111.656H309.56V549.608H619.278V111.656Z" fill="#263238"/>
<path d="M611.623 104.002H301.905V541.954H611.623V104.002Z" fill="white" stroke="#263238" stroke-linecap="round" stroke-linejoin="round"/>
<path d="M596.421 147.469H314.954V226.802H596.421V147.469Z" fill="white" stroke="#263238" stroke-linecap="round" stroke-linejoin="round"/>
<path d="M407.322 131.169H314.954V147.469H407.322V131.169Z" fill="white" stroke="#263238" stroke-linecap="round" stroke-linejoin="round"/>
<path d="M596.407 131.169H504.039V147.469H596.407V131.169Z" fill="white" stroke="#263238" stroke-linecap="round" stroke-linejoin="round"/>
<path d="M314.954 173.552H596.421" stroke="#263238" stroke-linecap="round" stroke-linejoin="round"/>
<path d="M314.954 198.551H596.421" stroke="#263238" stroke-linecap="round" stroke-linejoin="round"/>
<path d="M596.421 251.233H314.954V330.566H596.421V251.233Z" fill="white" stroke="#263238" stroke-linecap="round" stroke-linejoin="round"/>
<path d="M314.954 277.316H596.421" stroke="#263238" stroke-linecap="round" stroke-linejoin="round"/>
<path d="M314.954 302.315H596.421" stroke="#263238" stroke-linecap="round" stroke-linejoin="round"/>
<path d="M319.541 153.841H353.768" stroke="#263238" stroke-linecap="round" stroke-linejoin="round"/>
<path d="M494.098 153.841H528.324" stroke="#263238" stroke-linecap="round" stroke-linejoin="round"/>
<path d="M319.541 135.28H353.768" stroke="#263238" stroke-linecap="round" stroke-linejoin="round"/>
<path d="M505.48 135.28H539.707" stroke="#263238" stroke-linecap="round" stroke-linejoin="round"/>
<path d="M319.541 178.576H353.768" stroke="#263238" stroke-linecap="round" stroke-linejoin="round"/>
<path d="M319.541 205.783H353.768" stroke="#263238" stroke-linecap="round" stroke-linejoin="round"/>
<path d="M425.248 205.783H459.461" stroke="#263238" stroke-linecap="round" stroke-linejoin="round"/>
<path d="M419.735 132.398H488.175" stroke="#263238" stroke-linecap="round" stroke-linejoin="round"/>
<path d="M419.735 139.405H488.175" stroke="#263238" stroke-linecap="round" stroke-linejoin="round"/>
<path d="M412.834 220.576H428.355" stroke="#263238" stroke-linecap="round" stroke-linejoin="round"/>
<path d="M432.228 220.576H447.748" stroke="#263238" stroke-linecap="round" stroke-linejoin="round"/>
<path d="M451.622 220.576H467.142" stroke="#263238" stroke-linecap="round" stroke-linejoin="round"/>
<path d="M596.421 347.237H314.954V426.57H596.421V347.237Z" fill="white" stroke="#263238" stroke-linecap="round" stroke-linejoin="round"/>
<path d="M321.127 367.649C321.127 367.649 326.415 354.561 323.216 357.694C320.017 360.827 317.452 371.839 325.305 369.222C333.157 366.604 338.392 355.076 336.304 359.796C334.215 364.515 335.259 368.164 341.592 364.502C347.924 360.84 348.915 360.84 349.444 362.929C349.973 365.018 351.533 364.502 357.297 362.414C363.061 360.325 362.585 363.987 362.585 365.547C362.585 367.107 369.922 366.604 372.54 365.547C375.157 364.489 377.246 361.369 377.828 365.031C378.409 368.693 383.578 368.693 383.578 368.693H397.71" stroke="#FF8730" stroke-linecap="round" stroke-linejoin="round"/>
<path d="M314.954 373.32H596.421" stroke="#263238" stroke-linecap="round" stroke-linejoin="round"/>
<path d="M314.954 398.319H596.421" stroke="#263238" stroke-linecap="round" stroke-linejoin="round"/>
<path d="M319.541 353.609H353.768" stroke="#263238" stroke-linecap="round" stroke-linejoin="round"/>
<path d="M494.098 353.609H528.324" stroke="#263238" stroke-linecap="round" stroke-linejoin="round"/>
<path d="M319.541 378.343H353.768" stroke="#263238" stroke-linecap="round" stroke-linejoin="round"/>
<path d="M319.541 405.55H353.768" stroke="#263238" stroke-linecap="round" stroke-linejoin="round"/>
<path d="M425.248 405.55H459.461" stroke="#263238" stroke-linecap="round" stroke-linejoin="round"/>
<path d="M412.834 420.343H428.355" stroke="#263238" stroke-linecap="round" stroke-linejoin="round"/>
<path d="M432.228 420.343H447.748" stroke="#263238" stroke-linecap="round" stroke-linejoin="round"/>
<path d="M451.622 420.343H467.142" stroke="#263238" stroke-linecap="round" stroke-linejoin="round"/>
<path d="M321.683 259.363H402.166" stroke="#263238" stroke-linecap="round" stroke-linejoin="round"/>
<path d="M321.683 285.539H371.139" stroke="#263238" stroke-linecap="round" stroke-linejoin="round"/>
<path d="M446.77 285.539H496.226" stroke="#263238" stroke-linecap="round" stroke-linejoin="round"/>
<path d="M524.358 318.523H573.814" stroke="#263238" stroke-linecap="round" stroke-linejoin="round"/>
<path d="M513.689 285.539H563.145" stroke="#263238" stroke-linecap="round" stroke-linejoin="round"/>
<path d="M515.62 312.693H503.986V324.326H515.62V312.693Z" stroke="#263238" stroke-linecap="round" stroke-linejoin="round"/>
<path d="M443.862 318.523H493.318" stroke="#263238" stroke-linecap="round" stroke-linejoin="round"/>
<path d="M435.137 312.693H423.503V324.326H435.137V312.693Z" stroke="#263238" stroke-linecap="round" stroke-linejoin="round"/>
<path d="M363.378 318.523H412.834" stroke="#263238" stroke-linecap="round" stroke-linejoin="round"/>
<path d="M354.64 312.693H343.006V324.326H354.64V312.693Z" stroke="#263238" stroke-linecap="round" stroke-linejoin="round"/>
<path d="M562.709 441.667H595.138" stroke="#263238" stroke-linecap="round" stroke-linejoin="round"/>
<path d="M434 441.667H558.532" stroke="#263238" stroke-linecap="round" stroke-linejoin="round"/>
<path d="M353.768 441.667H430.245" stroke="#263238" stroke-linecap="round" stroke-linejoin="round"/>
<path d="M316.831 441.667H350.832" stroke="#263238" stroke-linecap="round" stroke-linejoin="round"/>
<path d="M524.266 449.189H595.138" stroke="#263238" stroke-linecap="round" stroke-linejoin="round"/>
<path d="M388.866 449.189H520.921" stroke="#263238" stroke-linecap="round" stroke-linejoin="round"/>
<path d="M316.831 449.189H384.689" stroke="#263238" stroke-linecap="round" stroke-linejoin="round"/>
<path d="M542.655 456.711H595.138" stroke="#263238" stroke-linecap="round" stroke-linejoin="round"/>
<path d="M429.822 456.711H539.733" stroke="#263238" stroke-linecap="round" stroke-linejoin="round"/>
<path d="M365.467 456.711H423.966" stroke="#263238" stroke-linecap="round" stroke-linejoin="round"/>
<path d="M316.831 456.711H361.699" stroke="#263238" stroke-linecap="round" stroke-linejoin="round"/>
<path d="M571.487 464.234H595.138" stroke="#263238" stroke-linecap="round" stroke-linejoin="round"/>
<path d="M334.532 464.234H567.31" stroke="#263238" stroke-linecap="round" stroke-linejoin="round"/>
<path d="M316.831 464.234H331.201" stroke="#263238" stroke-linecap="round" stroke-linejoin="round"/>
<path d="M576.921 471.756H595.138" stroke="#263238" stroke-linecap="round" stroke-linejoin="round"/>
<path d="M518.832 471.756H573.166" stroke="#263238" stroke-linecap="round" stroke-linejoin="round"/>
<path d="M429.822 471.756H515.911" stroke="#263238" stroke-linecap="round" stroke-linejoin="round"/>
<path d="M346.655 471.756H426.477" stroke="#263238" stroke-linecap="round" stroke-linejoin="round"/>
<path d="M316.831 471.756H342.054" stroke="#263238" stroke-linecap="round" stroke-linejoin="round"/>
<path d="M562.3 479.278H595.138" stroke="#263238" stroke-linecap="round" stroke-linejoin="round"/>
<path d="M456.989 479.278H557.699" stroke="#263238" stroke-linecap="round" stroke-linejoin="round"/>
<path d="M388.866 479.278H451.555" stroke="#263238" stroke-linecap="round" stroke-linejoin="round"/>
<path d="M316.831 479.278H384.689" stroke="#263238" stroke-linecap="round" stroke-linejoin="round"/>
<path d="M514.232 486.813H595.138" stroke="#263238" stroke-linecap="round" stroke-linejoin="round"/>
<path d="M353.768 486.813H508.389" stroke="#263238" stroke-linecap="round" stroke-linejoin="round"/>
<path d="M316.831 486.813H349.167" stroke="#263238" stroke-linecap="round" stroke-linejoin="round"/>
<path d="M319.739 509.552H354.653" stroke="#263238" stroke-linecap="round" stroke-linejoin="round"/>
<path d="M492.353 509.552H527.267" stroke="#263238" stroke-linecap="round" stroke-linejoin="round"/>
<path d="M363.378 509.552H480.719" stroke="#263238" stroke-linecap="round" stroke-linejoin="round"/>
<path d="M536.957 509.552H594.173" stroke="#263238" stroke-linecap="round" stroke-linejoin="round"/>
<path d="M324.102 274.064C324.102 274.064 329.495 275.307 330.712 269.08C331.928 262.854 326.97 266.172 326.97 269.49C326.97 272.808 328.636 276.1 334.902 271.156C341.169 266.211 339.463 267.005 343.204 270.733C346.946 274.461 343.614 275.307 351.136 272.398C358.659 269.49 359.068 270.733 358.606 273.231C358.143 275.73 356.53 274.474 363.59 271.989C370.649 269.503 373.967 267.414 373.135 270.667C372.302 273.919 369.393 274.818 374.787 271.09C380.181 267.362 383.512 255.318 378.938 264.48C374.364 273.641 372.711 272.412 379.361 271.09C386.011 269.768 388.073 265.273 388.073 268.591C388.073 271.909 382.679 273.998 388.073 271.923C393.467 269.847 395.542 267.771 395.542 269.847C395.542 271.922 390.558 275.651 397.618 272.332C404.677 269.014 406.753 265.273 406.753 268.181C406.753 271.09 405.497 270.257 406.753 271.09C408.009 271.923 405.497 269.424 409.238 270.667C412.98 271.909 411.314 274.408 416.708 272.332C422.101 270.257 421.692 267.348 424.64 270.257C427.588 273.165 424.64 277.316 432.572 273.575C440.504 269.834 442.526 271.923 445.025 272.332C447.085 272.648 449.168 272.785 451.252 272.742C452.904 272.742 452.494 271.09 456.645 272.742C459.11 273.948 461.836 274.52 464.577 274.408H469.31" stroke="#FF8730" stroke-linecap="round" stroke-linejoin="round"/>
<path d="M494.666 274.474C496.654 273.615 498.591 272.644 500.47 271.566C504.211 269.49 513.756 262.444 514.166 267.005C514.575 271.566 503.788 277.382 505.044 272.399C506.3 267.415 513.756 269.913 519.149 271.989C524.543 274.064 525.759 271.566 532.436 271.566C539.112 271.566 538.239 273.641 541.557 274.474C544.876 275.307 543.633 274.474 549.489 271.989C555.346 269.503 551.142 257.447 547.414 265.762C543.686 274.077 542.43 277.382 551.142 273.231C559.854 269.08 557.368 274.064 558.611 274.064C559.854 274.064 557.778 274.474 562.762 272.399C567.746 270.323 561.52 273.231 565.261 274.064C569.002 274.897 571.064 270.733 574.383 269.49C577.701 268.247 578.124 271.989 578.124 271.989H581.442" stroke="#FF8730" stroke-linecap="round" stroke-linejoin="round"/>
<path d="M321.603 194.334C321.603 194.334 323.679 193.501 326.997 188.531C330.315 183.56 324.921 181.921 323.679 187.288C322.436 192.655 319.527 198.908 328.663 194.334C337.798 189.76 334.466 181.114 331.571 187.724C328.676 194.334 329.495 201.01 338.181 196.026C346.866 191.043 347.726 188.094 348.968 190.633C350.211 193.171 345.65 193.951 353.119 194.361C360.589 194.771 361.831 192.285 365.15 191.043C368.468 189.8 370.134 191.043 370.134 191.043C371.077 191.327 372.057 191.469 373.042 191.466C374.695 191.466 376.77 190.144 377.603 191.466C378.436 192.788 369.301 194.361 380.102 192.708C390.902 191.056 393.322 183.983 394.207 189.39C395.093 194.797 386.738 199.345 386.738 194.361C386.738 189.377 391.722 184.406 399.601 188.967C407.48 193.528 407.07 194.784 411.221 195.577C415.372 196.37 422.009 191.849 422.009 191.849C422.009 191.849 421.599 192.259 424.084 193.501C426.57 194.744 425.75 194.757 430.311 193.501C434.872 192.246 431.144 193.092 437.371 192.259C443.597 191.426 446.492 191.849 443.981 193.924C441.469 196 434.436 193.092 443.571 191.439C452.706 189.787 453.935 192.682 453.935 193.924C453.935 195.167 456.434 195.577 458.509 194.757C460.536 194.126 462.623 193.706 464.736 193.501" stroke="#FF8730" stroke-linecap="round" stroke-linejoin="round"/>
<path d="M332.391 169.89C335.728 169.335 339.017 168.518 342.226 167.445C344.963 166.48 347.514 165.21 348.585 163.664C351.48 159.513 342.768 160.755 337.375 166.162C331.981 171.569 340.693 171.966 351.917 168.238C363.14 164.51 362.704 154.952 355.235 162.011C347.765 169.071 350.674 170.723 362.294 168.238C373.915 165.753 388.43 162.831 383.869 166.916C379.308 171.001 378.066 168.991 385.945 167.339C393.824 165.686 398.808 161.945 397.565 164.84C396.323 167.736 393.004 171.45 399.231 168.582C405.458 165.713 404.625 168.582 404.625 168.582C415.822 167.339 422.049 153.22 414.17 158.204C406.29 163.188 406.238 169.824 413.337 169.414C420.436 169.005 427.033 162.355 423.714 165.673C420.396 168.991 415.002 171.49 426.61 168.582C438.217 165.673 441.971 159.447 441.152 163.598C440.332 167.749 439.909 167.339 444.06 167.339C448.211 167.339 455.68 161.522 453.195 165.673C450.71 169.824 449.454 170.234 453.195 169.414C456.936 168.595 462.317 165.673 463.983 165.673C465.648 165.673 460.664 170.234 465.635 169.824C470.606 169.414 480.997 163.214 480.997 163.214" stroke="#FF8730" stroke-linecap="round" stroke-linejoin="round"/>
<path d="M469.31 163.254C469.31 163.254 479.688 170.3 482.173 170.3" stroke="#FF8730" stroke-linecap="round" stroke-linejoin="round"/>
<path d="M426.319 315.667L427.548 321.431L440.306 306.215" stroke="#FF8730" stroke-linecap="round" stroke-linejoin="round"/>
<path d="M285.248 566.742L295.639 576.868C295.639 576.868 319.356 585.66 320.427 587.259C321.498 588.859 320.427 593.393 320.427 593.393H265.802L267.243 571.633L285.248 566.742Z" fill="white" stroke="#263238" stroke-linecap="round" stroke-linejoin="round"/>
<path d="M320.889 589.929H266.04L265.802 593.393H320.427C320.68 592.254 320.835 591.095 320.889 589.929Z" fill="white" stroke="#263238" stroke-linecap="round" stroke-linejoin="round"/>
<path d="M173.01 392.912L180.506 481.486C180.506 481.486 174.504 534.828 174.504 540.116C174.504 545.404 171.86 562.59 171.86 562.59L189.932 564.798L214.032 473.58L217.562 436.564L247.082 503.1L267.282 571.659L285.288 566.768L271.328 478.868L245.43 396.018L243.566 386.328L173.05 387.201L173.01 392.912Z" fill="#263238" stroke="#263238" stroke-linecap="round" stroke-linejoin="round"/>
<path d="M171.86 562.59L166.572 577.027C166.572 577.027 156.723 588.475 157.517 590.617C157.737 591.224 158.088 591.776 158.545 592.232C159.002 592.689 159.553 593.04 160.161 593.261H184.671C185.29 593.114 185.85 592.783 186.278 592.31C186.705 591.838 186.979 591.248 187.063 590.617C187.411 588.679 187.588 586.715 187.592 584.747L189.906 564.798L171.86 562.59Z" fill="white" stroke="#263238" stroke-linecap="round" stroke-linejoin="round"/>
<path d="M187.05 590.617C187.129 590.273 187.196 589.916 187.248 589.546H157.596C157.448 589.882 157.406 590.256 157.477 590.617C157.697 591.224 158.048 591.776 158.505 592.232C158.962 592.689 159.514 593.04 160.121 593.261H184.631C185.255 593.119 185.821 592.789 186.254 592.317C186.686 591.844 186.964 591.251 187.05 590.617Z" fill="white" stroke="#263238" stroke-linecap="round" stroke-linejoin="round"/>
<path d="M198.128 266.105C198.128 266.105 174.993 267.427 168.053 272.054C161.112 276.681 127.401 304.443 127.401 304.443L129.133 333.316L166.4 306.426L171.688 399.627L245.39 395.992L243.737 344.103L242.746 342.451C242.746 342.451 266.542 366.908 275.465 366.247C284.389 365.586 286.372 350.713 279.762 341.459C273.152 332.205 263.237 318.985 256.296 309.07C249.356 299.155 249.356 284.613 239.11 277.673C228.865 270.732 211.018 266.766 211.018 266.766L198.128 266.105Z" fill="#FF8730" stroke="#263238" stroke-linecap="round" stroke-linejoin="round"/>
<path d="M243.737 344.104L242.296 314.266" stroke="#263238" stroke-linecap="round" stroke-linejoin="round"/>
<path d="M247.016 326.151L247.862 321.035" stroke="#263238" stroke-linecap="round" stroke-linejoin="round"/>
<path d="M244.279 342.544L246.408 329.826" stroke="#263238" stroke-linecap="round" stroke-linejoin="round"/>
<path d="M213.49 361.607L216.808 365.229" stroke="#263238" stroke-linecap="round" stroke-linejoin="round"/>
<path d="M177.796 322.634L211.401 359.32" stroke="#263238" stroke-linecap="round" stroke-linejoin="round"/>
<path d="M189.866 346.51L202.874 359.267" stroke="#263238" stroke-linecap="round" stroke-linejoin="round"/>
<path d="M183.362 340.151L187.103 343.813" stroke="#263238" stroke-linecap="round" stroke-linejoin="round"/>
<path d="M177.399 299.142L166.4 306.426L177.003 305.514" stroke="#263238" stroke-linecap="round" stroke-linejoin="round"/>
<path d="M195.841 239.15C196.572 244.195 196.97 249.282 197.031 254.379C196.978 259.376 196.58 264.363 195.841 269.305C195.841 269.305 210.767 292.003 213.45 293.788C216.134 295.573 217.932 287.813 217.932 284.534C217.932 281.256 218.236 271.698 218.236 271.698V260.95L195.841 239.15Z" fill="#EDA688" stroke="#263238" stroke-linecap="round" stroke-linejoin="round"/>
<path d="M218.13 273.165C218.13 272.266 218.13 271.698 218.13 271.698V260.95L213.054 256.019L200.667 251.008L218.13 273.165Z" fill="#263238" stroke="#263238" stroke-linecap="round" stroke-linejoin="round"/>
<path d="M232.262 209.286C232.262 209.286 235.845 220.933 236.149 225.705C236.453 230.477 233.756 234.073 233.756 235.567C233.756 237.061 237.934 243.023 237.934 245.125C237.934 247.227 232.857 249.898 232.857 249.898C232.857 249.898 230.768 260.95 225.401 264.532C220.034 268.115 207.779 259.456 203.006 254.974C199.015 251.368 196.116 246.715 194.638 241.543C193.144 236.757 194.942 225.679 197.93 216.755C199.022 213.053 201.146 209.739 204.054 207.2C206.962 204.662 210.533 203.006 214.349 202.425C221.21 201.222 231.35 205.108 232.262 209.286Z" fill="#EDA688" stroke="#263238" stroke-linecap="round" stroke-linejoin="round"/>
<path d="M227.781 237.511C227.781 238.912 227.318 240.049 226.736 240.049C226.155 240.049 225.692 238.912 225.692 237.511C225.692 236.11 226.168 234.973 226.736 234.973C227.305 234.973 227.781 236.11 227.781 237.511Z" fill="#263238"/>
<path d="M224.74 232.276C224.74 232.276 228.931 230.187 231.35 232.884" stroke="#263238" stroke-linecap="round" stroke-linejoin="round"/>
<path d="M227.186 254.38C227.186 254.38 220.92 252.291 220.576 247.77" stroke="#263238" stroke-linecap="round" stroke-linejoin="round"/>
<path d="M196.978 238.053C196.978 238.053 202.65 238.952 203.244 235.964C203.839 232.976 200.257 232.381 204.143 229.698C208.03 227.014 210.753 227.054 211.904 225.216C213.054 223.378 211.428 220.536 213.516 215.764C215.605 210.991 218.117 212.221 224.092 213.12C227.586 213.609 230.949 214.776 233.994 216.557C233.994 216.557 237.669 208.784 233.783 204.302C229.896 199.82 217.562 195.273 203.826 199.45C190.091 203.628 185.926 213.569 184.736 224.317C183.547 235.065 187.724 241.04 191.69 242.23C195.656 243.42 196.978 238.053 196.978 238.053Z" fill="#263238" stroke="#263238" stroke-linecap="round" stroke-linejoin="round"/>
<path d="M200.019 237.352C200.019 237.352 196.436 226.313 193.409 231.985C190.381 237.656 191.915 242.428 194.902 244.226C195.259 244.471 195.67 244.628 196.099 244.684C196.529 244.74 196.965 244.693 197.373 244.547C197.781 244.401 198.148 244.161 198.445 243.845C198.742 243.53 198.959 243.148 199.08 242.732" fill="#EDA688"/>
<path d="M200.019 237.352C200.019 237.352 196.436 226.313 193.409 231.985C190.381 237.656 191.915 242.428 194.902 244.226C195.259 244.471 195.67 244.628 196.099 244.684C196.529 244.74 196.965 244.693 197.373 244.547C197.781 244.401 198.148 244.161 198.445 243.845C198.742 243.53 198.959 243.148 199.08 242.732" stroke="#263238" stroke-linecap="round" stroke-linejoin="round"/>
<path d="M266.013 350.436C269.821 343.442 286.676 322.859 286.676 322.859L297.662 328.147C297.662 328.147 289.346 358.447 285.354 362.77C281.362 367.093 276.973 368.56 272.306 365.229" fill="#EDA688"/>
<path d="M266.013 350.436C269.821 343.442 286.676 322.859 286.676 322.859L297.662 328.147C297.662 328.147 289.346 358.447 285.354 362.77C281.362 367.093 276.973 368.56 272.306 365.229" stroke="#263238" stroke-linecap="round" stroke-linejoin="round"/>
<path d="M272.544 365.031C274.666 366.198 277.129 366.59 279.509 366.142C281.889 365.693 284.04 364.431 285.592 362.572C286.795 361.25 288.395 357.588 290.034 353.106C286.195 353.942 282.186 353.438 278.674 351.677C275.162 349.916 272.359 347.005 270.733 343.429C268.746 345.961 267.031 348.695 265.617 351.586C265.484 351.996 266.582 357.059 266.516 357.429" fill="#FF8730"/>
<path d="M272.544 365.031C274.666 366.198 277.129 366.59 279.509 366.142C281.889 365.693 284.04 364.431 285.592 362.572C286.795 361.25 288.395 357.588 290.034 353.106C286.195 353.942 282.186 353.438 278.674 351.677C275.162 349.916 272.359 347.005 270.733 343.429C268.746 345.961 267.031 348.695 265.617 351.586C265.484 351.996 266.582 357.059 266.516 357.429" stroke="#263238" stroke-linecap="round" stroke-linejoin="round"/>
<path d="M397.552 369.116C397.294 369.119 397.037 369.069 396.799 368.97L382.693 363.114C382.447 363.018 382.222 362.874 382.032 362.69C381.843 362.507 381.691 362.287 381.588 362.044C381.484 361.801 381.43 361.539 381.429 361.275C381.427 361.011 381.479 360.749 381.58 360.505C381.682 360.261 381.831 360.04 382.019 359.854C382.207 359.669 382.43 359.523 382.675 359.425C382.92 359.326 383.183 359.278 383.447 359.283C383.711 359.288 383.972 359.345 384.213 359.452L398.319 365.308C398.739 365.487 399.084 365.805 399.296 366.209C399.509 366.612 399.576 367.077 399.486 367.524C399.396 367.971 399.154 368.374 398.802 368.664C398.45 368.954 398.008 369.113 397.552 369.116Z" fill="white" stroke="#263238" stroke-linecap="round" stroke-linejoin="round"/>
<path d="M353.516 358.857L39.9907 218.13C37.5922 217.05 35.7202 215.063 34.7858 212.604C33.8514 210.145 33.9308 207.416 35.0068 205.016C36.0839 202.618 38.069 200.747 40.5256 199.812C42.9823 198.877 45.7095 198.957 48.1078 200.032L361.633 340.759L353.516 358.857Z" fill="white" stroke="#263238" stroke-linecap="round" stroke-linejoin="round"/>
<path d="M82.5461 215.486L48.1741 200.032C45.7741 198.947 43.0414 198.859 40.577 199.789C38.1127 200.719 36.1186 202.589 35.0334 204.989C33.9482 207.389 33.8609 210.122 34.7906 212.587C35.7203 215.051 37.5909 217.045 39.9909 218.13L73.5697 233.307L82.5461 215.486Z" fill="white" stroke="#263238" stroke-linecap="round" stroke-linejoin="round"/>
<path d="M361.633 340.759L393.017 362.254L391.061 366.432L353.516 358.857L361.633 340.759Z" fill="white" stroke="#263238" stroke-linecap="round" stroke-linejoin="round"/>
<path d="M74.2172 211.771L48.1077 200.058C45.7339 199.115 43.0876 199.124 40.7203 200.083C38.3529 201.043 36.4474 202.879 35.4007 205.209C34.3541 207.54 34.2472 210.184 35.1023 212.591C35.9574 214.998 37.7085 216.982 39.9907 218.13L65.0029 229.354L74.2172 211.771Z" fill="#FF8730" stroke="#263238" stroke-linecap="round" stroke-linejoin="round"/>
<path d="M105.919 232.395C105.919 232.395 103.275 246.606 105.258 249.25C107.241 251.894 118.147 261.809 118.147 261.809C118.147 261.809 113.851 319.647 114.842 324.935C115.834 330.223 127.071 334.189 130.706 333.197C134.342 332.206 136.986 328.24 140.291 320.969C143.596 313.698 128.723 262.801 128.723 260.487C128.723 258.174 121.783 240.327 121.783 240.327C121.783 240.327 127.401 236.361 128.393 235.039C129.384 233.717 124.427 234.708 123.435 234.708C120.188 234.333 116.981 233.669 113.851 232.725C112.529 232.064 105.919 232.395 105.919 232.395Z" fill="#EDA688" stroke="#263238" stroke-linecap="round" stroke-linejoin="round"/>
<path d="M121.915 234.629C121.915 234.629 117.235 235.805 117.407 236.969C117.579 238.132 117.579 245.496 117.579 245.496" fill="white"/>
<path d="M121.915 234.629C121.915 234.629 117.235 235.805 117.407 236.969C117.579 238.132 117.579 245.496 117.579 245.496" stroke="#263238" stroke-linecap="round" stroke-linejoin="round"/>
<path d="M114.737 233.465C114.737 233.465 110.771 233.293 110.771 235.475V244.662" fill="white"/>
<path d="M114.737 233.465C114.737 233.465 110.771 233.293 110.771 235.475V244.662" stroke="#263238" stroke-linecap="round" stroke-linejoin="round"/>
<path d="M105.866 233.293L106.54 244.663" stroke="#263238" stroke-linecap="round" stroke-linejoin="round"/>
<path d="M130.706 333.144C134.342 332.153 136.986 328.187 140.291 320.916C141.547 318.179 140.198 309.229 138.057 299.023C134.782 301.227 131.028 302.617 127.107 303.077C123.186 303.536 119.213 303.053 115.517 301.667C114.869 313.023 114.459 322.899 114.842 324.948C115.834 330.223 127.071 334.189 130.706 333.144Z" fill="#FF8730" stroke="#263238" stroke-linecap="round" stroke-linejoin="round"/>
<path d="M286.557 307.021C287.926 305.867 289.672 305.256 291.462 305.303C294.106 305.554 294.648 309.48 294.397 312.904C294.145 316.328 290.431 317.082 289.981 314.874C289.532 312.666 289.003 309.229 289.003 309.229L286.557 307.021Z" fill="#EDA688" stroke="#263238" stroke-linecap="round" stroke-linejoin="round"/>
<path d="M293.907 306.784C294.82 306.517 295.8 306.594 296.66 307.001C297.52 307.408 298.201 308.116 298.574 308.991C300.041 312.177 298.323 316.342 296.604 316.593C294.885 316.844 294.396 312.904 294.396 312.904L293.907 306.784Z" fill="#EDA688" stroke="#263238" stroke-linecap="round" stroke-linejoin="round"/>
<path d="M298.574 308.991C298.905 308.822 299.271 308.733 299.643 308.731C300.015 308.73 300.382 308.815 300.715 308.981C301.048 309.147 301.338 309.388 301.56 309.686C301.783 309.984 301.933 310.33 301.998 310.696C302.989 313.644 303.967 317.306 301.76 317.306C299.552 317.306 298.812 313.34 298.812 313.34L298.574 308.991Z" fill="#EDA688" stroke="#263238" stroke-linecap="round" stroke-linejoin="round"/>
<path d="M301.998 310.67C301.998 310.67 305.197 310.432 305.964 312.389C306.731 314.345 308.172 318.034 305.475 318.034C304.748 318.034 303.029 314.597 303.029 314.597L301.998 310.67Z" fill="#EDA688" stroke="#263238" stroke-linecap="round" stroke-linejoin="round"/>
</svg>
