<svg width="1920" height="952" viewBox="0 0 1920 952" fill="none" xmlns="http://www.w3.org/2000/svg">
<g clip-path="url(#clip0_171_2)">
<mask id="path-1-inside-1_171_2" fill="white">
<path fill-rule="evenodd" clip-rule="evenodd" d="M179.278 813.734C163.428 841.678 143.497 876.816 108.424 914.033C108.424 914.033 -204.896 749.319 -105.193 546.305C-89.6878 514.733 -80.5483 490.664 -76.1698 472.529L-125.077 472.529L-123.531 450.529L-169 450.529C-169 450.529 -145.588 435.174 -121.885 427.084L-102.129 145.809C-58.8157 284.407 -26.4466 252.788 17.0596 210.289C67.4687 161.047 132.829 97.1997 247.49 266.6C261.772 258.491 274.325 252.711 285.894 247.383C338.03 223.377 370.184 208.572 450.464 31.245C533.588 12.5784 639.476 114.496 703.37 182.997C797.243 283.637 874.37 305.996 1049.87 156.996C1304.14 291.396 1308.64 209.925 1312.66 137.058C1314.73 99.5939 1316.67 64.4041 1352.37 61.9964C1414.47 57.8083 1472.56 105.237 1526.96 149.658C1564.66 180.443 1600.6 209.783 1634.87 219.496C1686.73 234.194 1701.72 207.774 1727.52 162.295C1743.37 134.351 1763.3 99.213 1798.37 61.9964C1798.37 61.9964 2111.69 226.71 2011.99 429.724C2003.83 446.326 1996.89 460.499 1991.01 472.529L1993.08 472.529C1993.08 472.529 1924.96 607.606 1991.01 472.529L1952.62 472.529L2008.92 830.22C1965.61 691.622 1933.24 723.241 1889.73 765.74C1839.33 814.982 1773.96 878.829 1659.3 709.429C1645.02 717.538 1632.47 723.318 1620.9 728.646C1568.76 752.652 1536.61 767.457 1456.33 944.784C1373.21 963.451 1267.32 861.533 1203.42 793.033C1109.55 692.393 1032.42 670.033 856.924 819.033C602.654 684.633 598.157 766.104 594.134 838.971C592.065 876.435 590.123 911.625 554.424 914.033C492.327 918.221 434.239 870.792 379.835 826.371C342.131 795.586 306.197 766.246 271.924 756.533C220.062 741.835 205.075 768.255 179.278 813.734Z"/>
</mask>
<path fill-rule="evenodd" clip-rule="evenodd" d="M179.278 813.734C163.428 841.678 143.497 876.816 108.424 914.033C108.424 914.033 -204.896 749.319 -105.193 546.305C-89.6878 514.733 -80.5483 490.664 -76.1698 472.529L-125.077 472.529L-123.531 450.529L-169 450.529C-169 450.529 -145.588 435.174 -121.885 427.084L-102.129 145.809C-58.8157 284.407 -26.4466 252.788 17.0596 210.289C67.4687 161.047 132.829 97.1997 247.49 266.6C261.772 258.491 274.325 252.711 285.894 247.383C338.03 223.377 370.184 208.572 450.464 31.245C533.588 12.5784 639.476 114.496 703.37 182.997C797.243 283.637 874.37 305.996 1049.87 156.996C1304.14 291.396 1308.64 209.925 1312.66 137.058C1314.73 99.5939 1316.67 64.4041 1352.37 61.9964C1414.47 57.8083 1472.56 105.237 1526.96 149.658C1564.66 180.443 1600.6 209.783 1634.87 219.496C1686.73 234.194 1701.72 207.774 1727.52 162.295C1743.37 134.351 1763.3 99.213 1798.37 61.9964C1798.37 61.9964 2111.69 226.71 2011.99 429.724C2003.83 446.326 1996.89 460.499 1991.01 472.529L1993.08 472.529C1993.08 472.529 1924.96 607.606 1991.01 472.529L1952.62 472.529L2008.92 830.22C1965.61 691.622 1933.24 723.241 1889.73 765.74C1839.33 814.982 1773.96 878.829 1659.3 709.429C1645.02 717.538 1632.47 723.318 1620.9 728.646C1568.76 752.652 1536.61 767.457 1456.33 944.784C1373.21 963.451 1267.32 861.533 1203.42 793.033C1109.55 692.393 1032.42 670.033 856.924 819.033C602.654 684.633 598.157 766.104 594.134 838.971C592.065 876.435 590.123 911.625 554.424 914.033C492.327 918.221 434.239 870.792 379.835 826.371C342.131 795.586 306.197 766.246 271.924 756.533C220.062 741.835 205.075 768.255 179.278 813.734Z" fill="url(#paint0_linear_171_2)"/>
<path d="M108.424 914.033L119.34 924.32L111.527 932.61L101.444 927.31L108.424 914.033ZM179.278 813.734L166.231 806.334L166.231 806.334L179.278 813.734ZM-105.193 546.305L-91.7295 552.918L-91.7295 552.918L-105.193 546.305ZM-76.1698 472.529L-76.1698 457.529L-57.1172 457.529L-61.5887 476.049L-76.1698 472.529ZM-125.077 472.529L-125.077 487.529L-141.167 487.529L-140.04 471.478L-125.077 472.529ZM-123.531 450.529L-123.531 435.529L-107.441 435.529L-108.568 451.58L-123.531 450.529ZM-169 450.529L-169 465.529L-219.222 465.529L-177.226 437.986L-169 450.529ZM-121.885 427.084L-106.922 428.135L-107.619 438.065L-117.04 441.281L-121.885 427.084ZM-102.129 145.809L-117.093 144.758L-87.8124 141.335L-102.129 145.809ZM17.0596 210.289L27.5412 221.019L27.5412 221.019L17.0596 210.289ZM247.49 266.6L254.897 279.644L242.84 286.491L235.068 275.008L247.49 266.6ZM285.894 247.383L279.62 233.758L279.62 233.758L285.894 247.383ZM450.464 31.245L436.799 25.0586L439.882 18.2476L447.177 16.6095L450.464 31.245ZM703.37 182.997L692.401 193.228L692.401 193.228L703.37 182.997ZM1049.87 156.996L1040.16 145.562L1047.9 138.99L1056.88 143.735L1049.87 156.996ZM1312.66 137.058L1327.64 137.885L1327.64 137.885L1312.66 137.058ZM1352.37 61.9964L1353.38 76.9624L1353.38 76.9624L1352.37 61.9964ZM1526.96 149.658L1536.45 138.039L1536.45 138.039L1526.96 149.658ZM1634.87 219.496L1630.78 233.928L1630.78 233.928L1634.87 219.496ZM1727.52 162.295L1740.56 169.695L1740.56 169.695L1727.52 162.295ZM1798.37 61.9964L1787.45 51.7088L1795.27 43.4185L1805.35 48.7193L1798.37 61.9964ZM2011.99 429.724L2025.45 436.336L2025.45 436.336L2011.99 429.724ZM1993.08 472.529L1993.08 457.529L2017.44 457.529L2006.47 479.283L1993.08 472.529ZM1952.62 472.529L1937.8 474.862L1935.07 457.529L1952.62 457.529L1952.62 472.529ZM2008.92 830.22L2023.74 827.887L1994.61 834.694L2008.92 830.22ZM1889.73 765.74L1879.25 755.01L1879.25 755.01L1889.73 765.74ZM1659.3 709.429L1651.9 696.385L1663.95 689.538L1671.73 701.021L1659.3 709.429ZM1620.9 728.646L1614.63 715.021L1614.63 715.021L1620.9 728.646ZM1456.33 944.784L1469.99 950.97L1466.91 957.781L1459.62 959.42L1456.33 944.784ZM1203.42 793.033L1214.39 782.801L1214.39 782.801L1203.42 793.033ZM856.924 819.033L866.632 830.467L858.892 837.039L849.914 832.294L856.924 819.033ZM594.134 838.971L579.156 838.144L579.156 838.144L594.134 838.971ZM554.424 914.033L555.433 928.999L555.433 928.999L554.424 914.033ZM379.835 826.371L389.322 814.752L389.322 814.752L379.835 826.371ZM271.924 756.533L276.014 742.101L276.014 742.101L271.924 756.533ZM97.5074 903.745C131.249 867.941 150.438 834.176 166.231 806.334L192.326 821.135C176.418 849.179 155.745 885.691 119.34 924.32L97.5074 903.745ZM-91.7295 552.918C-137.121 645.344 -89.8393 730.344 -25.1116 795.748C6.88522 828.079 42.0631 854.386 69.3676 872.658C82.9897 881.773 94.5799 888.841 102.732 893.613C106.807 895.998 110.018 897.806 112.19 899.008C113.276 899.608 114.101 900.057 114.644 900.349C114.916 900.496 115.117 900.603 115.244 900.671C115.308 900.705 115.353 900.729 115.38 900.743C115.393 900.75 115.402 900.755 115.406 900.757C115.408 900.758 115.407 900.757 115.408 900.758C115.407 900.757 115.404 900.755 108.424 914.033C101.444 927.31 101.439 927.307 101.432 927.303C101.428 927.301 101.42 927.297 101.413 927.293C101.398 927.285 101.378 927.275 101.353 927.262C101.304 927.236 101.236 927.2 101.15 927.154C100.977 927.062 100.73 926.93 100.412 926.758C99.7752 926.415 98.8534 925.914 97.6686 925.259C95.2993 923.948 91.8765 922.02 87.5785 919.504C78.9859 914.475 66.8769 907.088 52.6832 897.59C24.356 878.634 -12.5646 851.074 -46.4348 816.85C-113.441 749.144 -172.968 650.28 -118.657 539.693L-91.7295 552.918ZM-61.5887 476.049C-66.3305 495.689 -75.9882 520.865 -91.7295 552.918L-118.657 539.693C-103.387 508.6 -94.7661 485.639 -90.7508 469.008L-61.5887 476.049ZM-125.077 457.529L-76.1698 457.529L-76.1698 487.529L-125.077 487.529L-125.077 457.529ZM-108.568 451.58L-110.113 473.58L-140.04 471.478L-138.495 449.478L-108.568 451.58ZM-123.531 465.529L-169 465.529L-169 435.529L-123.531 435.529L-123.531 465.529ZM-169 450.529C-177.226 437.986 -177.225 437.985 -177.223 437.984C-177.223 437.983 -177.221 437.982 -177.22 437.981C-177.217 437.98 -177.214 437.978 -177.211 437.976C-177.204 437.971 -177.197 437.966 -177.187 437.96C-177.168 437.948 -177.144 437.932 -177.114 437.912C-177.054 437.873 -176.971 437.819 -176.867 437.752C-176.658 437.617 -176.362 437.428 -175.985 437.188C-175.231 436.71 -174.15 436.032 -172.787 435.2C-170.065 433.538 -166.2 431.25 -161.561 428.698C-152.381 423.647 -139.747 417.331 -126.73 412.888L-117.04 441.281C-127.727 444.928 -138.65 450.333 -147.101 454.983C-151.278 457.28 -154.748 459.336 -157.156 460.806C-158.358 461.54 -159.291 462.125 -159.91 462.518C-160.219 462.714 -160.45 462.862 -160.596 462.956C-160.668 463.003 -160.72 463.037 -160.75 463.056C-160.765 463.066 -160.775 463.072 -160.779 463.075C-160.781 463.076 -160.781 463.077 -160.78 463.076C-160.78 463.076 -160.779 463.075 -160.778 463.074C-160.777 463.074 -160.776 463.073 -160.776 463.073C-160.775 463.072 -160.774 463.072 -169 450.529ZM-87.1664 146.86L-106.922 428.135L-136.848 426.034L-117.093 144.758L-87.1664 146.86ZM27.5412 221.019C16.9527 231.362 5.79084 242.33 -5.3141 249.984C-16.3936 257.621 -30.2658 263.985 -45.7855 260.62C-61.1433 257.29 -73.4684 245.434 -84.1102 228.219C-94.8925 210.777 -105.481 185.374 -116.447 150.284L-87.8124 141.335C-77.1215 175.544 -67.4208 198.163 -58.5923 212.445C-49.6233 226.953 -43.0156 230.523 -39.4287 231.301C-36.0036 232.044 -30.919 231.197 -22.3397 225.283C-13.7857 219.387 -4.58666 210.465 6.57793 199.559L27.5412 221.019ZM235.068 275.008C178.23 191.036 137.288 170.717 108.563 171.449C93.9489 171.821 80.2619 177.581 66.6739 186.873C52.9297 196.273 40.3144 208.542 27.5412 221.019L6.57793 199.559C19.0093 187.415 33.4676 173.238 49.7391 162.11C66.1669 150.876 85.4382 142.028 107.798 141.459C153.021 140.306 202.089 172.765 259.912 258.193L235.068 275.008ZM292.168 261.008C280.59 266.34 268.563 271.884 254.897 279.644L240.083 253.557C254.98 245.098 268.06 239.082 279.62 233.758L292.168 261.008ZM464.129 37.4313C423.901 126.289 395.085 175.966 369.044 206.536C342.239 238.003 318.648 248.816 292.168 261.008L279.62 233.758C305.276 221.945 323.83 213.351 346.206 187.083C369.347 159.917 396.747 113.528 436.799 25.0586L464.129 37.4313ZM692.401 193.228C660.61 159.145 619.016 117.469 575.469 86.6812C531.133 55.3355 488.623 38.0495 453.75 45.8805L447.177 16.6095C495.429 5.77392 547.425 30.1136 592.788 62.1852C638.939 94.8146 682.236 138.348 714.339 172.765L692.401 193.228ZM1059.58 168.431C971.448 243.254 904.751 278.107 846.139 278.611C786.491 279.123 739.888 244.138 692.401 193.228L714.339 172.765C760.725 222.495 799.622 249.01 845.881 248.612C893.176 248.206 952.793 219.739 1040.16 145.562L1059.58 168.431ZM1327.64 137.885C1326.66 155.613 1325.6 176.384 1319.97 194.311C1314.1 212.987 1302.71 230.323 1280.43 238.777C1259.28 246.802 1230.98 245.717 1193.6 235.275C1155.89 224.74 1106.86 204.086 1042.86 170.258L1056.88 143.735C1120.02 177.107 1166.9 196.668 1201.67 206.381C1236.77 216.186 1257.53 215.378 1269.79 210.728C1280.92 206.505 1287.3 198.211 1291.35 185.317C1295.64 171.674 1296.65 154.937 1297.68 136.231L1327.64 137.885ZM1353.38 76.9624C1347.02 77.3916 1343.28 79.1582 1340.81 81.1466C1338.23 83.2307 1335.9 86.4946 1333.94 91.6823C1329.72 102.833 1328.71 118.371 1327.64 137.885L1297.68 136.231C1298.67 118.282 1299.67 97.4922 1305.87 81.0798C1309.12 72.4861 1314.09 64.1596 1321.98 57.7976C1329.98 51.3401 1339.87 47.8051 1351.36 47.0304L1353.38 76.9624ZM1517.47 161.277C1490.07 138.902 1462.88 116.749 1435.02 100.571C1407.22 84.434 1380.24 75.1509 1353.38 76.9624L1351.36 47.0304C1386.6 44.6538 1419.71 56.9911 1450.08 74.6266C1480.39 92.2211 1509.45 115.993 1536.45 138.039L1517.47 161.277ZM1630.78 233.928C1611.34 228.419 1592.22 217.604 1573.69 204.828C1555.11 192.02 1536.21 176.578 1517.47 161.277L1536.45 138.039C1555.41 153.522 1573.33 168.143 1590.72 180.13C1608.15 192.149 1624.13 200.861 1638.96 205.065L1630.78 233.928ZM1740.56 169.695C1728.23 191.431 1716.53 212.6 1700.17 225.307C1681.8 239.578 1659.7 242.123 1630.78 233.928L1638.96 205.065C1661.91 211.568 1673.23 208.251 1681.76 201.617C1692.32 193.418 1701 178.637 1714.47 154.894L1740.56 169.695ZM1809.29 72.284C1775.54 108.088 1756.36 141.853 1740.56 169.695L1714.47 154.894C1730.38 126.85 1751.05 90.3383 1787.45 51.7088L1809.29 72.284ZM1998.52 423.111C2043.92 330.684 1996.63 245.685 1931.91 180.281C1899.91 147.95 1864.73 121.643 1837.43 103.371C1823.8 94.2555 1812.21 87.1877 1804.06 82.4161C1799.99 80.0313 1796.78 78.2227 1794.6 77.0214C1793.52 76.4209 1792.69 75.9723 1792.15 75.6797C1791.88 75.5333 1791.68 75.426 1791.55 75.3582C1791.49 75.3242 1791.44 75.3002 1791.41 75.2861C1791.4 75.279 1791.39 75.2744 1791.39 75.2723C1791.39 75.2713 1791.39 75.2716 1791.39 75.2711C1791.39 75.272 1791.39 75.2736 1798.37 61.9964C1805.35 48.7193 1805.36 48.7221 1805.36 48.7256C1805.37 48.7276 1805.37 48.7316 1805.38 48.7356C1805.4 48.7436 1805.42 48.754 1805.44 48.767C1805.49 48.793 1805.56 48.829 1805.64 48.875C1805.82 48.9671 1806.06 49.0991 1806.38 49.2706C1807.02 49.6136 1807.94 50.1148 1809.13 50.7702C1811.49 52.0808 1814.92 54.0093 1819.22 56.5248C1827.81 61.554 1839.92 68.9405 1854.11 78.4388C1882.44 97.3949 1919.36 124.955 1953.23 159.179C2020.24 226.885 2079.76 325.749 2025.45 436.336L1998.52 423.111ZM1977.53 465.94C1983.42 453.901 1990.37 439.72 1998.52 423.111L2025.45 436.336C2017.3 452.932 2010.36 467.097 2004.48 479.118L1977.53 465.94ZM1991.01 457.529L1993.08 457.529L1993.08 487.529L1991.01 487.529L1991.01 457.529ZM1993.08 472.529C2006.47 479.283 2006.47 479.284 2006.47 479.285C2006.47 479.286 2006.47 479.288 2006.47 479.29C2006.46 479.294 2006.46 479.3 2006.46 479.308C2006.45 479.325 2006.44 479.349 2006.42 479.382C2006.39 479.447 2006.34 479.543 2006.28 479.669C2006.15 479.922 2005.96 480.294 2005.72 480.773C2005.23 481.731 2004.53 483.119 2003.67 484.836C2001.93 488.271 1999.52 493.026 1996.84 498.311C1991.49 508.862 1985.01 521.585 1980.58 530.099C1978.45 534.209 1976.59 537.732 1975.61 539.424C1975.6 539.437 1974.82 540.84 1973.8 542.075C1973.59 542.329 1973.21 542.769 1972.7 543.271C1972.32 543.64 1971.19 544.725 1969.46 545.686C1968.37 546.289 1962.6 549.346 1955.78 546.127C1948.79 542.825 1947.57 536.222 1947.36 534.852C1947.04 532.813 1947.23 531.195 1947.3 530.665C1947.39 529.934 1947.51 529.355 1947.59 529.028C1947.75 528.37 1947.92 527.852 1948 527.611C1948.43 526.318 1949.24 524.557 1949.83 523.265C1952.83 516.724 1961.05 499.645 1977.53 465.94L2004.48 479.118C1987.94 512.951 1979.91 529.642 1977.1 535.764C1976.76 536.511 1976.53 537.034 1976.38 537.376C1976.16 537.881 1976.27 537.659 1976.44 537.156C1976.49 537.006 1976.64 536.561 1976.78 535.959C1976.85 535.66 1976.97 535.104 1977.06 534.394C1977.13 533.882 1977.32 532.28 1977 530.252C1976.8 529.199 1976 526.726 1975.34 525.353C1974.19 523.571 1970.82 520.301 1968.59 518.998C1966.19 518.108 1961.64 517.573 1959.61 517.786C1958.18 518.108 1955.85 518.97 1954.94 519.435C1953.21 520.39 1952.09 521.465 1951.73 521.821C1951.23 522.309 1950.87 522.731 1950.68 522.965C1950.29 523.433 1950.03 523.813 1949.94 523.944C1949.82 524.117 1949.74 524.245 1949.7 524.299C1949.63 524.405 1949.62 524.439 1949.67 524.354C1950.22 523.408 1951.71 520.599 1953.96 516.266C1958.31 507.896 1964.73 495.292 1970.09 484.737C1972.76 479.469 1975.16 474.727 1976.89 471.303C1977.76 469.59 1978.46 468.208 1978.94 467.253C1979.18 466.776 1979.36 466.406 1979.49 466.156C1979.55 466.03 1979.6 465.935 1979.63 465.871C1979.65 465.839 1979.66 465.815 1979.67 465.799C1979.68 465.791 1979.68 465.785 1979.68 465.781C1979.68 465.779 1979.68 465.777 1979.68 465.776C1979.68 465.775 1979.68 465.775 1993.08 472.529ZM1952.62 457.529L1991.01 457.529L1991.01 487.529L1952.62 487.529L1952.62 457.529ZM1994.11 832.552L1937.8 474.862L1967.43 470.196L2023.74 827.887L1994.11 832.552ZM1879.25 755.01C1889.84 744.667 1901 733.699 1912.11 726.045C1923.19 718.408 1937.06 712.044 1952.58 715.409C1967.94 718.739 1980.26 730.595 1990.9 747.81C2001.69 765.252 2012.28 790.656 2023.24 825.745L1994.61 834.694C1983.92 800.485 1974.22 777.866 1965.39 763.585C1956.42 749.076 1949.81 745.506 1946.22 744.728C1942.8 743.985 1937.71 744.832 1929.13 750.746C1920.58 756.642 1911.38 765.564 1900.22 776.47L1879.25 755.01ZM1671.73 701.021C1728.56 784.993 1769.51 805.312 1798.23 804.58C1812.85 804.208 1826.53 798.448 1840.12 789.156C1853.86 779.757 1866.48 767.487 1879.25 755.01L1900.22 776.47C1887.78 788.614 1873.33 802.791 1857.05 813.919C1840.63 825.153 1821.36 834.001 1799 834.571C1753.77 835.723 1704.7 803.265 1646.88 717.837L1671.73 701.021ZM1614.63 715.021C1626.2 709.689 1638.23 704.145 1651.9 696.385L1666.71 722.472C1651.81 730.931 1638.73 736.947 1627.17 742.271L1614.63 715.021ZM1442.67 938.598C1482.89 849.74 1511.71 800.064 1537.75 769.493C1564.55 738.026 1588.15 727.213 1614.63 715.021L1627.17 742.271C1601.52 754.084 1582.96 762.678 1560.59 788.947C1537.45 816.112 1510.05 862.501 1469.99 950.97L1442.67 938.598ZM1214.39 782.801C1246.18 816.884 1287.78 858.56 1331.33 889.348C1375.66 920.694 1418.17 937.98 1453.04 930.149L1459.62 959.42C1411.36 970.255 1359.37 945.916 1314.01 913.844C1267.85 881.214 1224.56 837.681 1192.45 803.264L1214.39 782.801ZM847.216 807.598C935.346 732.775 1002.04 697.922 1060.66 697.418C1120.3 696.906 1166.91 731.891 1214.39 782.801L1192.45 803.264C1146.07 753.534 1107.17 727.02 1060.91 727.417C1013.62 727.823 954.002 756.29 866.632 830.467L847.216 807.598ZM579.156 838.144C580.135 820.416 581.192 799.645 586.825 781.718C592.694 763.042 604.084 745.706 626.365 737.252C647.519 729.227 675.812 730.312 713.194 740.754C750.906 751.289 799.934 771.943 863.934 805.771L849.914 832.294C786.779 798.922 739.893 779.361 705.123 769.648C670.024 759.843 649.265 760.651 637.007 765.301C625.878 769.524 619.497 777.818 615.445 790.712C611.158 804.355 610.144 821.092 609.111 839.798L579.156 838.144ZM553.414 899.067C559.778 898.637 563.515 896.871 565.98 894.882C568.563 892.798 570.898 889.534 572.858 884.347C577.071 873.196 578.079 857.659 579.156 838.144L609.111 839.798C608.12 857.748 607.123 878.537 600.922 894.949C597.676 903.543 592.702 911.869 584.816 918.231C576.812 924.689 566.919 928.224 555.433 928.999L553.414 899.067ZM389.322 814.752C416.726 837.127 443.911 859.28 471.776 875.458C499.57 891.595 526.555 900.878 553.414 899.067L555.433 928.999C520.196 931.375 487.088 919.038 456.713 901.402C426.409 883.808 397.348 860.036 370.348 837.99L389.322 814.752ZM276.014 742.101C295.453 747.61 314.578 758.425 333.108 771.201C351.684 784.009 370.581 799.451 389.322 814.752L370.348 837.99C351.385 822.507 333.464 807.886 316.078 795.899C298.646 783.88 282.668 775.168 267.834 770.964L276.014 742.101ZM166.231 806.334C178.56 784.598 190.268 763.429 206.624 750.722C224.992 736.451 247.097 733.906 276.014 742.101L267.834 770.964C244.888 764.461 233.569 767.778 225.029 774.412C214.477 782.611 205.794 797.392 192.326 821.135L166.231 806.334Z" fill="#DDEEFF" mask="url(#path-1-inside-1_171_2)"/>
</g>
<defs>
<linearGradient id="paint0_linear_171_2" x1="982.102" y1="121.999" x2="947.788" y2="1685.6" gradientUnits="userSpaceOnUse">
<stop stop-color="#BBDEFF"/>
<stop offset="1" stop-color="#D1BBFF"/>
</linearGradient>
<clipPath id="clip0_171_2">
<rect width="1920" height="952" fill="white" transform="matrix(-1 0 0 1 1920 0)"/>
</clipPath>
</defs>
</svg>
