<?xml version="1.0" encoding="iso-8859-1"?>
<!-- Uploaded to: SVG Repo, www.svgrepo.com, Generator: SVG Repo Mixer Tools -->
<svg fill="#000000" height="800px" width="800px" version="1.1" id="Layer_1" xmlns="http://www.w3.org/2000/svg" xmlns:xlink="http://www.w3.org/1999/xlink" 
	 viewBox="0 0 512 512" xml:space="preserve">
<g>
	<g>
		<path d="M488.727,83.782c1.164-3.491,0-6.982-3.491-10.473L450.327,38.4c-4.655-4.655-11.636-4.655-16.291,0l-81.455,81.455
			c-2.327,2.327-3.491,4.655-3.491,8.145v34.909c0,6.982,4.655,11.636,11.636,11.636h34.909c3.491,0,5.818-1.164,8.146-3.491
			l66.327-66.327h6.982c6.982,0,11.636,4.655,11.636,11.636v279.273c0,6.982-4.655,11.636-11.636,11.636H34.909
			c-6.982,0-11.636-4.655-11.636-11.636V116.364c0-6.982,4.655-11.636,11.636-11.636h290.909c6.982,0,11.636-4.655,11.636-11.636
			c0-6.982-4.655-11.636-11.636-11.636H34.909C15.127,81.455,0,96.582,0,116.364v279.273c0,19.782,15.127,34.909,34.909,34.909
			h442.182c19.782,0,34.909-15.127,34.909-34.909V116.364C512,101.236,501.527,88.436,488.727,83.782z M457.309,84.945
			l-66.327,66.327h-18.618v-18.618l69.818-69.818L460.8,81.455L457.309,84.945z"/>
	</g>
</g>
<g>
	<g>
		<path d="M93.091,267.636c6.982,0,11.636-4.655,11.636-11.636c0-6.982-4.655-11.636-11.636-11.636H69.818v-23.273h23.273
			c6.982,0,11.636-4.655,11.636-11.636c0-6.982-4.655-11.636-11.636-11.636H58.182c-6.982,0-11.636,4.655-11.636,11.636v93.091
			c0,6.982,4.655,11.636,11.636,11.636h34.909c6.982,0,11.636-4.655,11.636-11.636s-4.655-11.636-11.636-11.636H69.818v-23.273
			H93.091z"/>
	</g>
</g>
<g>
	<g>
		<path d="M174.545,221.091h-34.909c-6.982,0-11.636,4.655-11.636,11.636s4.655,11.636,11.636,11.636h34.909
			c6.982,0,11.636-4.655,11.636-11.636S181.527,221.091,174.545,221.091z"/>
	</g>
</g>
<g>
	<g>
		<path d="M174.545,267.636h-34.909c-6.982,0-11.636,4.655-11.636,11.636c0,6.982,4.655,11.636,11.636,11.636h34.909
			c6.982,0,11.636-4.655,11.636-11.636C186.182,272.291,181.527,267.636,174.545,267.636z"/>
	</g>
</g>
<g>
	<g>
		<path d="M384,267.636c-6.982,0-11.636,4.655-11.636,11.636c0,6.982-4.655,11.636-11.636,11.636s-11.636-4.655-11.636-11.636
			v-46.545c0-6.982,4.655-11.636,11.636-11.636s11.636,4.655,11.636,11.636s4.655,11.636,11.636,11.636s11.636-4.655,11.636-11.636
			c0-19.782-15.127-34.909-34.909-34.909c-19.782,0-34.909,15.127-34.909,34.909v46.545c0,19.782,15.127,34.909,34.909,34.909
			c19.782,0,34.909-15.127,34.909-34.909C395.636,272.291,390.982,267.636,384,267.636z"/>
	</g>
</g>
<g>
	<g>
		<path d="M295.564,198.982c-4.655-2.327-9.309-1.164-12.8,2.327L256,228.073l-26.764-26.764c-3.491-3.491-8.145-4.655-12.8-2.327
			c-4.655,1.164-6.982,5.818-6.982,10.473v93.091c0,6.982,4.655,11.636,11.636,11.636c6.982,0,11.636-4.655,11.636-11.636v-65.164
			l15.127,15.127c4.655,4.655,11.636,4.655,16.291,0l15.127-15.127v65.164c0,6.982,4.655,11.636,11.636,11.636
			s11.636-4.655,11.636-11.636v-93.091C302.545,204.8,300.218,200.145,295.564,198.982z"/>
	</g>
</g>
<g>
	<g>
		<path d="M453.818,232.727l6.982-9.309c5.818-6.982,5.818-16.291,2.327-24.436s-11.636-12.8-20.945-12.8h-11.636
			c-6.982,0-11.636,4.655-11.636,11.636s4.655,11.636,11.636,11.636h11.636l-20.945,27.927c-2.327,3.491-3.491,8.145-1.164,11.636
			S425.891,256,430.545,256h23.273c6.982,0,11.636-4.655,11.636-11.636S460.8,232.727,453.818,232.727z"/>
	</g>
</g>
<g>
	<g>
		<path d="M500.364,453.818H11.636C4.655,453.818,0,458.473,0,465.454c0,6.982,4.655,11.636,11.636,11.636h488.727
			c6.982,0,11.636-4.655,11.636-11.636C512,458.473,507.345,453.818,500.364,453.818z"/>
	</g>
</g>
</svg>